<svg width="388" height="115" viewBox="0 0 388 115" fill="none" xmlns="http://www.w3.org/2000/svg">
<path d="M50.8687 93V23.1818H74.4596C79.9369 23.1818 84.4142 24.1705 87.8915 26.1477C91.3915 28.1023 93.9824 30.75 95.6642 34.0909C97.346 37.4318 98.1869 41.1591 98.1869 45.2727C98.1869 49.3864 97.346 53.125 95.6642 56.4886C94.0051 59.8523 91.4369 62.5341 87.9596 64.5341C84.4824 66.5114 80.0278 67.5 74.596 67.5H57.6869V60H74.3233C78.0733 60 81.0846 59.3523 83.3574 58.0568C85.6301 56.7614 87.2778 55.0114 88.3005 52.8068C89.346 50.5795 89.8687 48.0682 89.8687 45.2727C89.8687 42.4773 89.346 39.9773 88.3005 37.7727C87.2778 35.5682 85.6187 33.8409 83.3233 32.5909C81.0278 31.3182 77.9824 30.6818 74.1869 30.6818H59.3233V93H50.8687ZM110.715 93V40.6364H118.488V48.5455H119.034C119.988 45.9545 121.715 43.8523 124.215 42.2386C126.715 40.625 129.534 39.8182 132.67 39.8182C133.261 39.8182 133.999 39.8295 134.886 39.8523C135.772 39.875 136.443 39.9091 136.897 39.9545V48.1364C136.624 48.0682 135.999 47.9659 135.022 47.8295C134.068 47.6705 133.056 47.5909 131.988 47.5909C129.443 47.5909 127.17 48.125 125.17 49.1932C123.193 50.2386 121.624 51.6932 120.465 53.5568C119.329 55.3977 118.761 57.5 118.761 59.8636V93H110.715ZM166.113 94.0909C161.386 94.0909 157.238 92.9659 153.67 90.7159C150.124 88.4659 147.352 85.3182 145.352 81.2727C143.374 77.2273 142.386 72.5 142.386 67.0909C142.386 61.6364 143.374 56.875 145.352 52.8068C147.352 48.7386 150.124 45.5795 153.67 43.3295C157.238 41.0795 161.386 39.9545 166.113 39.9545C170.84 39.9545 174.977 41.0795 178.522 43.3295C182.09 45.5795 184.863 48.7386 186.84 52.8068C188.84 56.875 189.84 61.6364 189.84 67.0909C189.84 72.5 188.84 77.2273 186.84 81.2727C184.863 85.3182 182.09 88.4659 178.522 90.7159C174.977 92.9659 170.84 94.0909 166.113 94.0909ZM166.113 86.8636C169.704 86.8636 172.659 85.9432 174.977 84.1023C177.295 82.2614 179.011 79.8409 180.124 76.8409C181.238 73.8409 181.795 70.5909 181.795 67.0909C181.795 63.5909 181.238 60.3295 180.124 57.3068C179.011 54.2841 177.295 51.8409 174.977 49.9773C172.659 48.1136 169.704 47.1818 166.113 47.1818C162.522 47.1818 159.568 48.1136 157.249 49.9773C154.931 51.8409 153.215 54.2841 152.102 57.3068C150.988 60.3295 150.431 63.5909 150.431 67.0909C150.431 70.5909 150.988 73.8409 152.102 76.8409C153.215 79.8409 154.931 82.2614 157.249 84.1023C159.568 85.9432 162.522 86.8636 166.113 86.8636ZM225.44 40.6364V47.4545H197.212V40.6364H225.44ZM205.667 93V33.4091C205.667 30.4091 206.372 27.9091 207.781 25.9091C209.19 23.9091 211.019 22.4091 213.269 21.4091C215.519 20.4091 217.894 19.9091 220.394 19.9091C222.372 19.9091 223.985 20.0682 225.235 20.3864C226.485 20.7045 227.417 21 228.031 21.2727L225.712 28.2273C225.303 28.0909 224.735 27.9205 224.008 27.7159C223.303 27.5114 222.372 27.4091 221.212 27.4091C218.553 27.4091 216.633 28.0795 215.451 29.4205C214.292 30.7614 213.712 32.7273 213.712 35.3182V93H205.667ZM236.715 93V40.6364H244.761V93H236.715ZM240.806 31.9091C239.238 31.9091 237.886 31.375 236.749 30.3068C235.636 29.2386 235.079 27.9545 235.079 26.4545C235.079 24.9545 235.636 23.6705 236.749 22.6023C237.886 21.5341 239.238 21 240.806 21C242.374 21 243.715 21.5341 244.829 22.6023C245.965 23.6705 246.534 24.9545 246.534 26.4545C246.534 27.9545 245.965 29.2386 244.829 30.3068C243.715 31.375 242.374 31.9091 240.806 31.9091ZM267.542 23.1818V93H259.497V23.1818H267.542ZM304.232 94.0909C299.187 94.0909 294.835 92.9773 291.176 90.75C287.539 88.5 284.732 85.3636 282.755 81.3409C280.801 77.2955 279.823 72.5909 279.823 67.2273C279.823 61.8636 280.801 57.1364 282.755 53.0455C284.732 48.9318 287.482 45.7273 291.005 43.4318C294.551 41.1136 298.687 39.9545 303.414 39.9545C306.141 39.9545 308.835 40.4091 311.494 41.3182C314.153 42.2273 316.573 43.7045 318.755 45.75C320.937 47.7727 322.676 50.4545 323.971 53.7955C325.266 57.1364 325.914 61.25 325.914 66.1364V69.5455H285.551V62.5909H317.732C317.732 59.6364 317.141 57 315.96 54.6818C314.801 52.3636 313.141 50.5341 310.982 49.1932C308.846 47.8523 306.323 47.1818 303.414 47.1818C300.21 47.1818 297.437 47.9773 295.096 49.5682C292.778 51.1364 290.994 53.1818 289.744 55.7045C288.494 58.2273 287.869 60.9318 287.869 63.8182V68.4545C287.869 72.4091 288.551 75.7614 289.914 78.5114C291.301 81.2386 293.221 83.3182 295.676 84.75C298.13 86.1591 300.982 86.8636 304.232 86.8636C306.346 86.8636 308.255 86.5682 309.96 85.9773C311.687 85.3636 313.176 84.4545 314.426 83.25C315.676 82.0227 316.641 80.5 317.323 78.6818L325.096 80.8636C324.278 83.5 322.903 85.8182 320.971 87.8182C319.039 89.7955 316.653 91.3409 313.812 92.4545C310.971 93.5455 307.778 94.0909 304.232 94.0909ZM338.153 93V40.6364H345.926V48.5455H346.471C347.426 45.9545 349.153 43.8523 351.653 42.2386C354.153 40.625 356.971 39.8182 360.107 39.8182C360.698 39.8182 361.437 39.8295 362.323 39.8523C363.21 39.875 363.88 39.9091 364.335 39.9545V48.1364C364.062 48.0682 363.437 47.9659 362.46 47.8295C361.505 47.6705 360.494 47.5909 359.426 47.5909C356.88 47.5909 354.607 48.125 352.607 49.1932C350.63 50.2386 349.062 51.6932 347.903 53.5568C346.766 55.3977 346.198 57.5 346.198 59.8636V93H338.153Z" fill="#9E479E"/>
<path d="M24.4246 84.8284L24.391 110.579L370.27 110.03" stroke="#9E479E" stroke-width="8"/>
<path d="M25.7515 84.8284C20.6583 84.8284 15.6795 83.3181 11.4447 80.4885C7.20991 77.6589 3.90928 73.6371 1.96021 68.9316C0.0111455 64.2261 -0.498819 59.0483 0.494808 54.0531C1.48844 49.0578 3.94103 44.4693 7.54244 40.8679L25.7515 59.0769L25.7515 84.8284Z" fill="#9E479E"/>
</svg>