<svg width="375" height="667" viewBox="0 0 375 667" fill="none" xmlns="http://www.w3.org/2000/svg">
<rect width="375" height="667" fill="url(#paint0_linear_20_16)"/>
<g filter="url(#filter0_d_20_16)">
<rect x="89" y="235" width="197" height="197" rx="34" fill="white"/>
</g>
<path d="M130.638 344.604V318.422H139.485C141.538 318.422 143.217 318.792 144.521 319.534C145.834 320.267 146.806 321.26 147.436 322.513C148.067 323.765 148.382 325.163 148.382 326.706C148.382 328.248 148.067 329.65 147.436 330.912C146.814 332.173 145.851 333.179 144.547 333.929C143.243 334.67 141.573 335.041 139.536 335.041H133.195V332.229H139.433C140.84 332.229 141.969 331.986 142.821 331.5C143.673 331.014 144.291 330.358 144.675 329.531C145.067 328.696 145.263 327.754 145.263 326.706C145.263 325.658 145.067 324.72 144.675 323.893C144.291 323.067 143.669 322.419 142.808 321.95C141.948 321.473 140.806 321.234 139.382 321.234H133.808V344.604H130.638ZM153.08 344.604V324.967H155.995V327.933H156.2C156.558 326.962 157.205 326.173 158.143 325.568C159.08 324.963 160.137 324.66 161.313 324.66C161.535 324.66 161.812 324.665 162.144 324.673C162.477 324.682 162.728 324.694 162.899 324.712V327.78C162.796 327.754 162.562 327.716 162.195 327.665C161.837 327.605 161.458 327.575 161.058 327.575C160.103 327.575 159.251 327.775 158.501 328.176C157.759 328.568 157.171 329.113 156.737 329.812C156.311 330.503 156.097 331.291 156.097 332.177V344.604H153.08ZM173.855 345.013C172.082 345.013 170.526 344.591 169.188 343.747C167.859 342.903 166.819 341.723 166.069 340.206C165.328 338.689 164.957 336.916 164.957 334.888C164.957 332.842 165.328 331.057 166.069 329.531C166.819 328.006 167.859 326.821 169.188 325.977C170.526 325.133 172.082 324.712 173.855 324.712C175.627 324.712 177.178 325.133 178.508 325.977C179.846 326.821 180.886 328.006 181.627 329.531C182.377 331.057 182.752 332.842 182.752 334.888C182.752 336.916 182.377 338.689 181.627 340.206C180.886 341.723 179.846 342.903 178.508 343.747C177.178 344.591 175.627 345.013 173.855 345.013ZM173.855 342.302C175.201 342.302 176.309 341.957 177.178 341.267C178.048 340.577 178.691 339.669 179.109 338.544C179.526 337.419 179.735 336.2 179.735 334.888C179.735 333.575 179.526 332.352 179.109 331.219C178.691 330.085 178.048 329.169 177.178 328.47C176.309 327.771 175.201 327.422 173.855 327.422C172.508 327.422 171.4 327.771 170.531 328.47C169.661 329.169 169.018 330.085 168.6 331.219C168.183 332.352 167.974 333.575 167.974 334.888C167.974 336.2 168.183 337.419 168.6 338.544C169.018 339.669 169.661 340.577 170.531 341.267C171.4 341.957 172.508 342.302 173.855 342.302ZM196.102 324.967V327.524H185.517V324.967H196.102ZM188.687 344.604V322.257C188.687 321.132 188.951 320.194 189.48 319.444C190.008 318.694 190.694 318.132 191.538 317.757C192.382 317.382 193.273 317.194 194.21 317.194C194.951 317.194 195.557 317.254 196.025 317.373C196.494 317.493 196.844 317.604 197.074 317.706L196.204 320.314C196.051 320.263 195.838 320.199 195.565 320.122C195.301 320.045 194.951 320.007 194.517 320.007C193.52 320.007 192.799 320.258 192.356 320.761C191.922 321.264 191.704 322.001 191.704 322.973V344.604H188.687ZM200.33 344.604V324.967H203.347V344.604H200.33ZM201.864 321.694C201.276 321.694 200.769 321.494 200.343 321.094C199.926 320.693 199.717 320.212 199.717 319.649C199.717 319.087 199.926 318.605 200.343 318.204C200.769 317.804 201.276 317.604 201.864 317.604C202.453 317.604 202.955 317.804 203.373 318.204C203.799 318.605 204.012 319.087 204.012 319.649C204.012 320.212 203.799 320.693 203.373 321.094C202.955 321.494 202.453 321.694 201.864 321.694ZM211.89 318.422V344.604H208.873V318.422H211.89ZM225.649 345.013C223.757 345.013 222.125 344.595 220.753 343.76C219.389 342.916 218.337 341.74 217.595 340.231C216.862 338.714 216.496 336.95 216.496 334.939C216.496 332.927 216.862 331.155 217.595 329.621C218.337 328.078 219.368 326.876 220.689 326.015C222.019 325.146 223.57 324.712 225.342 324.712C226.365 324.712 227.375 324.882 228.372 325.223C229.369 325.564 230.277 326.118 231.095 326.885C231.913 327.643 232.565 328.649 233.051 329.902C233.537 331.155 233.78 332.697 233.78 334.53V335.808H218.644V333.2H230.712C230.712 332.092 230.49 331.104 230.047 330.234C229.612 329.365 228.99 328.679 228.181 328.176C227.379 327.673 226.433 327.422 225.342 327.422C224.141 327.422 223.101 327.72 222.223 328.317C221.354 328.905 220.685 329.672 220.216 330.618C219.747 331.564 219.513 332.578 219.513 333.66V335.399C219.513 336.882 219.769 338.139 220.28 339.17C220.8 340.193 221.52 340.973 222.44 341.51C223.361 342.038 224.431 342.302 225.649 342.302C226.442 342.302 227.158 342.192 227.797 341.97C228.445 341.74 229.003 341.399 229.472 340.947C229.94 340.487 230.303 339.916 230.558 339.234L233.473 340.052C233.166 341.041 232.651 341.91 231.926 342.66C231.202 343.402 230.307 343.981 229.242 344.399C228.176 344.808 226.979 345.013 225.649 345.013ZM238.369 344.604V324.967H241.284V327.933H241.489C241.847 326.962 242.494 326.173 243.432 325.568C244.369 324.963 245.426 324.66 246.602 324.66C246.824 324.66 247.101 324.665 247.433 324.673C247.766 324.682 248.017 324.694 248.188 324.712V327.78C248.085 327.754 247.851 327.716 247.485 327.665C247.127 327.605 246.747 327.575 246.347 327.575C245.392 327.575 244.54 327.775 243.79 328.176C243.048 328.568 242.46 329.113 242.026 329.812C241.6 330.503 241.387 331.291 241.387 332.177V344.604H238.369Z" fill="black"/>
<path d="M120.546 342.243L120.533 352.151L253.615 351.939" stroke="black"/>
<path d="M131.672 411.189H131.118L132.72 406.826H133.266L134.868 411.189H134.314L133.01 407.516H132.976L131.672 411.189ZM131.876 409.485H134.109V409.954H131.876V409.485ZM135.982 406.826V411.189H135.479V406.826H135.982ZM137.406 406.826V411.189H136.903V406.826H137.406ZM140.015 411.189V407.917H140.5V408.411H140.534C140.594 408.249 140.702 408.118 140.858 408.017C141.015 407.916 141.191 407.865 141.387 407.865C141.424 407.865 141.47 407.866 141.525 407.868C141.581 407.869 141.623 407.871 141.651 407.874V408.385C141.634 408.381 141.595 408.375 141.534 408.366C141.474 408.356 141.411 408.351 141.344 408.351C141.185 408.351 141.043 408.385 140.918 408.451C140.794 408.517 140.696 408.608 140.624 408.724C140.553 408.839 140.517 408.971 140.517 409.118V411.189H140.015ZM142.247 411.189V407.917H142.75V411.189H142.247ZM142.503 407.371C142.405 407.371 142.32 407.338 142.249 407.271C142.179 407.204 142.145 407.124 142.145 407.03C142.145 406.937 142.179 406.856 142.249 406.789C142.32 406.723 142.405 406.689 142.503 406.689C142.601 406.689 142.684 406.723 142.754 406.789C142.825 406.856 142.861 406.937 142.861 407.03C142.861 407.124 142.825 407.204 142.754 407.271C142.684 407.338 142.601 407.371 142.503 407.371ZM144.992 412.485C144.749 412.485 144.54 412.454 144.365 412.391C144.191 412.33 144.045 412.249 143.929 412.148C143.814 412.049 143.722 411.942 143.654 411.829L144.054 411.547C144.1 411.607 144.157 411.675 144.227 411.752C144.297 411.83 144.392 411.897 144.512 411.954C144.635 412.012 144.794 412.042 144.992 412.042C145.256 412.042 145.474 411.978 145.646 411.85C145.818 411.722 145.904 411.522 145.904 411.249V410.584H145.861C145.824 410.644 145.772 410.718 145.703 410.806C145.637 410.892 145.54 410.97 145.414 411.038C145.289 411.105 145.12 411.138 144.907 411.138C144.642 411.138 144.405 411.076 144.195 410.951C143.986 410.826 143.821 410.644 143.698 410.405C143.578 410.167 143.517 409.877 143.517 409.536C143.517 409.201 143.576 408.909 143.694 408.66C143.812 408.41 143.976 408.217 144.186 408.081C144.397 407.943 144.64 407.874 144.915 407.874C145.128 407.874 145.297 407.91 145.422 407.981C145.549 408.05 145.645 408.13 145.712 408.219C145.78 408.307 145.833 408.38 145.87 408.437H145.921V407.917H146.407V411.283C146.407 411.564 146.343 411.793 146.215 411.969C146.088 412.147 145.918 412.277 145.703 412.359C145.49 412.443 145.253 412.485 144.992 412.485ZM144.975 410.687C145.176 410.687 145.347 410.64 145.486 410.548C145.625 410.456 145.731 410.323 145.804 410.15C145.876 409.976 145.912 409.769 145.912 409.527C145.912 409.292 145.877 409.084 145.806 408.903C145.735 408.723 145.63 408.581 145.49 408.479C145.351 408.377 145.179 408.326 144.975 408.326C144.762 408.326 144.584 408.38 144.442 408.488C144.301 408.596 144.196 408.74 144.125 408.922C144.055 409.104 144.02 409.306 144.02 409.527C144.02 409.755 144.056 409.956 144.127 410.13C144.199 410.304 144.306 410.44 144.446 410.539C144.588 410.637 144.765 410.687 144.975 410.687ZM147.83 409.221V411.189H147.327V406.826H147.83V408.428H147.873C147.949 408.259 148.064 408.125 148.218 408.025C148.373 407.924 148.578 407.874 148.836 407.874C149.059 407.874 149.254 407.919 149.422 408.008C149.589 408.096 149.719 408.232 149.811 408.415C149.905 408.597 149.952 408.829 149.952 409.11V411.189H149.449V409.144C149.449 408.884 149.382 408.683 149.247 408.541C149.113 408.397 148.928 408.326 148.691 408.326C148.526 408.326 148.378 408.361 148.248 408.43C148.118 408.5 148.016 408.601 147.941 408.735C147.867 408.868 147.83 409.03 147.83 409.221ZM152.295 407.917V408.343H150.599V407.917H152.295ZM151.094 407.133H151.596V410.252C151.596 410.394 151.617 410.5 151.658 410.571C151.701 410.641 151.755 410.688 151.82 410.712C151.887 410.735 151.957 410.746 152.031 410.746C152.086 410.746 152.132 410.743 152.167 410.738C152.203 410.731 152.231 410.725 152.253 410.721L152.355 411.172C152.321 411.185 152.273 411.198 152.212 411.211C152.151 411.225 152.074 411.232 151.98 411.232C151.838 411.232 151.699 411.201 151.562 411.14C151.427 411.079 151.315 410.986 151.226 410.861C151.138 410.736 151.094 410.579 151.094 410.388V407.133ZM155.311 408.65L154.86 408.777C154.831 408.702 154.789 408.629 154.734 408.558C154.68 408.486 154.606 408.426 154.512 408.379C154.418 408.332 154.298 408.309 154.152 408.309C153.952 408.309 153.785 408.355 153.651 408.447C153.519 408.538 153.453 408.654 153.453 408.794C153.453 408.919 153.499 409.018 153.59 409.091C153.681 409.163 153.823 409.223 154.016 409.272L154.502 409.391C154.794 409.462 155.012 409.571 155.156 409.717C155.299 409.862 155.371 410.049 155.371 410.277C155.371 410.465 155.317 410.633 155.209 410.78C155.102 410.928 154.953 411.044 154.762 411.13C154.57 411.215 154.347 411.258 154.092 411.258C153.759 411.258 153.482 411.185 153.264 411.04C153.045 410.895 152.906 410.684 152.848 410.405L153.325 410.286C153.371 410.462 153.457 410.594 153.583 410.682C153.711 410.77 153.878 410.814 154.084 410.814C154.318 410.814 154.504 410.765 154.642 410.665C154.781 410.564 154.851 410.444 154.851 410.303C154.851 410.189 154.811 410.094 154.732 410.017C154.652 409.939 154.53 409.881 154.365 409.843L153.82 409.715C153.52 409.644 153.3 409.534 153.159 409.385C153.02 409.234 152.95 409.046 152.95 408.82C152.95 408.635 153.002 408.472 153.106 408.33C153.211 408.188 153.354 408.076 153.534 407.995C153.716 407.914 153.922 407.874 154.152 407.874C154.476 407.874 154.73 407.945 154.915 408.087C155.101 408.229 155.233 408.417 155.311 408.65ZM157.815 411.189V407.917H158.301V408.411H158.335C158.395 408.249 158.503 408.118 158.659 408.017C158.815 407.916 158.991 407.865 159.187 407.865C159.224 407.865 159.271 407.866 159.326 407.868C159.381 407.869 159.423 407.871 159.452 407.874V408.385C159.435 408.381 159.396 408.375 159.335 408.366C159.275 408.356 159.212 408.351 159.145 408.351C158.986 408.351 158.844 408.385 158.719 408.451C158.595 408.517 158.497 408.608 158.425 408.724C158.354 408.839 158.318 408.971 158.318 409.118V411.189H157.815ZM161.32 411.258C161.005 411.258 160.733 411.188 160.504 411.049C160.277 410.908 160.102 410.712 159.978 410.461C159.856 410.208 159.795 409.914 159.795 409.579C159.795 409.243 159.856 408.948 159.978 408.692C160.102 408.435 160.273 408.235 160.494 408.091C160.715 407.946 160.974 407.874 161.269 407.874C161.44 407.874 161.608 407.902 161.774 407.959C161.94 408.016 162.092 408.108 162.228 408.236C162.364 408.363 162.473 408.53 162.554 408.739C162.635 408.948 162.675 409.205 162.675 409.51V409.723H160.153V409.289H162.164C162.164 409.104 162.127 408.939 162.053 408.794C161.981 408.65 161.877 408.535 161.742 408.451C161.609 408.368 161.451 408.326 161.269 408.326C161.069 408.326 160.896 408.375 160.749 408.475C160.604 408.573 160.493 408.701 160.415 408.858C160.337 409.016 160.298 409.185 160.298 409.365V409.655C160.298 409.902 160.34 410.112 160.425 410.284C160.512 410.454 160.632 410.584 160.786 410.674C160.939 410.762 161.117 410.806 161.32 410.806C161.452 410.806 161.572 410.787 161.678 410.75C161.786 410.712 161.879 410.655 161.957 410.58C162.036 410.503 162.096 410.408 162.138 410.294L162.624 410.431C162.573 410.596 162.487 410.74 162.366 410.865C162.246 410.989 162.097 411.086 161.919 411.155C161.741 411.223 161.542 411.258 161.32 411.258ZM165.759 408.65L165.307 408.777C165.278 408.702 165.236 408.629 165.181 408.558C165.127 408.486 165.053 408.426 164.96 408.379C164.866 408.332 164.746 408.309 164.599 408.309C164.399 408.309 164.232 408.355 164.099 408.447C163.967 408.538 163.901 408.654 163.901 408.794C163.901 408.919 163.946 409.018 164.037 409.091C164.128 409.163 164.27 409.223 164.463 409.272L164.949 409.391C165.241 409.462 165.46 409.571 165.603 409.717C165.746 409.862 165.818 410.049 165.818 410.277C165.818 410.465 165.764 410.633 165.656 410.78C165.55 410.928 165.401 411.044 165.209 411.13C165.017 411.215 164.794 411.258 164.54 411.258C164.206 411.258 163.93 411.185 163.711 411.04C163.492 410.895 163.354 410.684 163.295 410.405L163.773 410.286C163.818 410.462 163.904 410.594 164.031 410.682C164.158 410.77 164.325 410.814 164.531 410.814C164.766 410.814 164.952 410.765 165.089 410.665C165.229 410.564 165.298 410.444 165.298 410.303C165.298 410.189 165.259 410.094 165.179 410.017C165.099 409.939 164.977 409.881 164.812 409.843L164.267 409.715C163.967 409.644 163.747 409.534 163.607 409.385C163.467 409.234 163.398 409.046 163.398 408.82C163.398 408.635 163.45 408.472 163.553 408.33C163.658 408.188 163.801 408.076 163.982 407.995C164.163 407.914 164.369 407.874 164.599 407.874C164.923 407.874 165.178 407.945 165.362 408.087C165.548 408.229 165.68 408.417 165.759 408.65ZM167.947 411.258C167.632 411.258 167.36 411.188 167.131 411.049C166.904 410.908 166.729 410.712 166.605 410.461C166.483 410.208 166.422 409.914 166.422 409.579C166.422 409.243 166.483 408.948 166.605 408.692C166.729 408.435 166.9 408.235 167.121 408.091C167.342 407.946 167.601 407.874 167.896 407.874C168.067 407.874 168.235 407.902 168.401 407.959C168.567 408.016 168.719 408.108 168.855 408.236C168.991 408.363 169.1 408.53 169.181 408.739C169.262 408.948 169.302 409.205 169.302 409.51V409.723H166.78V409.289H168.791C168.791 409.104 168.754 408.939 168.68 408.794C168.608 408.65 168.504 408.535 168.369 408.451C168.236 408.368 168.078 408.326 167.896 408.326C167.696 408.326 167.523 408.375 167.376 408.475C167.231 408.573 167.12 408.701 167.042 408.858C166.964 409.016 166.925 409.185 166.925 409.365V409.655C166.925 409.902 166.967 410.112 167.052 410.284C167.139 410.454 167.259 410.584 167.412 410.674C167.566 410.762 167.744 410.806 167.947 410.806C168.079 410.806 168.199 410.787 168.305 410.75C168.413 410.712 168.506 410.655 168.584 410.58C168.662 410.503 168.723 410.408 168.765 410.294L169.251 410.431C169.2 410.596 169.114 410.74 168.993 410.865C168.873 410.989 168.724 411.086 168.546 411.155C168.368 411.223 168.169 411.258 167.947 411.258ZM170.067 411.189V407.917H170.553V408.411H170.587C170.647 408.249 170.755 408.118 170.911 408.017C171.067 407.916 171.243 407.865 171.439 407.865C171.476 407.865 171.523 407.866 171.578 407.868C171.633 407.869 171.675 407.871 171.704 407.874V408.385C171.687 408.381 171.648 408.375 171.586 408.366C171.527 408.356 171.464 408.351 171.397 408.351C171.238 408.351 171.096 408.385 170.971 408.451C170.847 408.517 170.749 408.608 170.677 408.724C170.606 408.839 170.57 408.971 170.57 409.118V411.189H170.067ZM175.075 407.917L173.865 411.189H173.354L172.144 407.917H172.689L173.592 410.525H173.627L174.53 407.917H175.075ZM176.994 411.258C176.679 411.258 176.407 411.188 176.178 411.049C175.951 410.908 175.775 410.712 175.652 410.461C175.53 410.208 175.469 409.914 175.469 409.579C175.469 409.243 175.53 408.948 175.652 408.692C175.775 408.435 175.947 408.235 176.167 408.091C176.389 407.946 176.648 407.874 176.943 407.874C177.113 407.874 177.282 407.902 177.448 407.959C177.614 408.016 177.765 408.108 177.902 408.236C178.038 408.363 178.147 408.53 178.228 408.739C178.309 408.948 178.349 409.205 178.349 409.51V409.723H175.827V409.289H177.838C177.838 409.104 177.801 408.939 177.727 408.794C177.655 408.65 177.551 408.535 177.416 408.451C177.282 408.368 177.125 408.326 176.943 408.326C176.743 408.326 176.569 408.375 176.423 408.475C176.278 408.573 176.167 408.701 176.089 408.858C176.01 409.016 175.971 409.185 175.971 409.365V409.655C175.971 409.902 176.014 410.112 176.099 410.284C176.186 410.454 176.306 410.584 176.459 410.674C176.613 410.762 176.791 410.806 176.994 410.806C177.126 410.806 177.246 410.787 177.352 410.75C177.46 410.712 177.553 410.655 177.631 410.58C177.709 410.503 177.77 410.408 177.812 410.294L178.298 410.431C178.247 410.596 178.161 410.74 178.04 410.865C177.92 410.989 177.77 411.086 177.593 411.155C177.415 411.223 177.216 411.258 176.994 411.258ZM180.35 411.258C180.077 411.258 179.836 411.189 179.628 411.051C179.419 410.912 179.255 410.716 179.138 410.463C179.02 410.209 178.961 409.908 178.961 409.562C178.961 409.218 179.02 408.919 179.138 408.667C179.255 408.414 179.42 408.218 179.63 408.081C179.84 407.943 180.083 407.874 180.358 407.874C180.572 407.874 180.74 407.91 180.863 407.981C180.988 408.05 181.084 408.13 181.149 408.219C181.216 408.307 181.268 408.38 181.304 408.437H181.347V406.826H181.85V411.189H181.364V410.687H181.304C181.268 410.746 181.215 410.821 181.147 410.912C181.079 411.002 180.981 411.082 180.855 411.153C180.729 411.223 180.56 411.258 180.35 411.258ZM180.418 410.806C180.62 410.806 180.79 410.753 180.929 410.648C181.069 410.542 181.175 410.395 181.247 410.207C181.319 410.018 181.356 409.8 181.356 409.553C181.356 409.309 181.32 409.095 181.249 408.912C181.178 408.727 181.073 408.584 180.934 408.481C180.795 408.378 180.623 408.326 180.418 408.326C180.205 408.326 180.028 408.38 179.885 408.49C179.745 408.598 179.639 408.745 179.568 408.931C179.498 409.115 179.464 409.323 179.464 409.553C179.464 409.786 179.499 409.998 179.57 410.188C179.643 410.377 179.749 410.527 179.89 410.64C180.032 410.75 180.208 410.806 180.418 410.806ZM185.568 409.008C185.568 408.775 185.625 408.562 185.738 408.37C185.852 408.179 186.005 408.026 186.197 407.912C186.388 407.799 186.601 407.742 186.834 407.742C187.035 407.742 187.221 407.785 187.392 407.872C187.564 407.959 187.706 408.077 187.818 408.228C187.93 408.377 188 408.546 188.027 408.735H187.511C187.483 408.588 187.404 408.469 187.275 408.377C187.145 408.283 186.998 408.236 186.834 408.236C186.692 408.236 186.562 408.271 186.446 408.341C186.329 408.41 186.236 408.503 186.167 408.62C186.097 408.736 186.062 408.865 186.062 409.008C186.062 409.15 186.097 409.279 186.167 409.395C186.236 409.512 186.329 409.605 186.446 409.674C186.562 409.744 186.692 409.779 186.834 409.779C186.998 409.779 187.138 409.733 187.251 409.64C187.366 409.547 187.439 409.427 187.469 409.28H187.984C187.957 409.469 187.891 409.639 187.786 409.789C187.681 409.939 187.546 410.057 187.381 410.143C187.218 410.23 187.035 410.273 186.834 410.273C186.601 410.273 186.388 410.216 186.197 410.103C186.005 409.989 185.852 409.836 185.738 409.645C185.625 409.453 185.568 409.24 185.568 409.008ZM186.812 411.258C186.503 411.258 186.211 411.199 185.939 411.083C185.667 410.966 185.428 410.805 185.221 410.599C185.015 410.392 184.853 410.152 184.735 409.881C184.618 409.61 184.561 409.319 184.562 409.008C184.564 408.696 184.623 408.405 184.739 408.134C184.857 407.863 185.019 407.624 185.225 407.418C185.431 407.211 185.67 407.049 185.941 406.932C186.212 406.816 186.503 406.758 186.812 406.758C187.123 406.758 187.415 406.816 187.686 406.932C187.959 407.049 188.197 407.211 188.402 407.418C188.608 407.624 188.769 407.863 188.885 408.134C189.002 408.405 189.061 408.696 189.062 409.008C189.064 409.319 189.006 409.61 188.89 409.881C188.773 410.152 188.612 410.392 188.406 410.599C188.2 410.805 187.961 410.966 187.688 411.083C187.415 411.199 187.123 411.258 186.812 411.258ZM186.812 410.763C187.055 410.763 187.283 410.718 187.496 410.627C187.709 410.536 187.896 410.41 188.057 410.25C188.217 410.089 188.343 409.903 188.434 409.691C188.525 409.478 188.569 409.251 188.568 409.01C188.567 408.767 188.52 408.539 188.429 408.326C188.339 408.113 188.213 407.926 188.052 407.765C187.892 407.605 187.706 407.479 187.494 407.388C187.282 407.297 187.055 407.252 186.812 407.252C186.571 407.252 186.344 407.297 186.133 407.388C185.921 407.479 185.735 407.606 185.574 407.767C185.414 407.928 185.287 408.115 185.195 408.328C185.104 408.539 185.058 408.767 185.057 409.01C185.055 409.25 185.1 409.476 185.191 409.689C185.282 409.901 185.407 410.087 185.568 410.248C185.73 410.408 185.917 410.535 186.128 410.627C186.341 410.718 186.569 410.763 186.812 410.763ZM191.399 406.826H192.004L193.214 408.863H193.266L194.476 406.826H195.081L193.504 409.391V411.189H192.976V409.391L191.399 406.826ZM196.232 411.266C196.024 411.266 195.836 411.227 195.667 411.149C195.498 411.069 195.364 410.955 195.264 410.806C195.165 410.655 195.115 410.473 195.115 410.26C195.115 410.073 195.152 409.921 195.226 409.804C195.3 409.687 195.398 409.594 195.522 409.527C195.646 409.461 195.782 409.411 195.931 409.378C196.082 409.344 196.233 409.317 196.385 409.297C196.584 409.272 196.745 409.253 196.869 409.24C196.994 409.226 197.085 409.202 197.141 409.169C197.2 409.137 197.229 409.08 197.229 408.999V408.982C197.229 408.772 197.171 408.608 197.056 408.492C196.942 408.375 196.77 408.317 196.538 408.317C196.298 408.317 196.11 408.37 195.974 408.475C195.837 408.58 195.741 408.692 195.686 408.812L195.209 408.641C195.294 408.442 195.408 408.287 195.55 408.177C195.693 408.064 195.849 407.986 196.018 407.942C196.189 407.897 196.357 407.874 196.521 407.874C196.626 407.874 196.747 407.887 196.884 407.912C197.021 407.937 197.154 407.987 197.282 408.064C197.411 408.14 197.518 408.256 197.604 408.411C197.689 408.566 197.732 408.773 197.732 409.033V411.189H197.229V410.746H197.203C197.169 410.817 197.112 410.893 197.033 410.974C196.953 411.055 196.847 411.124 196.715 411.181C196.583 411.238 196.422 411.266 196.232 411.266ZM196.308 410.814C196.507 410.814 196.675 410.775 196.811 410.697C196.949 410.619 197.053 410.518 197.122 410.395C197.193 410.271 197.229 410.141 197.229 410.005V409.544C197.207 409.57 197.161 409.593 197.088 409.615C197.017 409.635 196.935 409.652 196.841 409.668C196.749 409.682 196.658 409.695 196.57 409.706C196.484 409.716 196.413 409.725 196.359 409.732C196.229 409.749 196.107 409.777 195.993 409.815C195.881 409.852 195.79 409.908 195.72 409.983C195.652 410.057 195.618 410.158 195.618 410.286C195.618 410.461 195.683 410.593 195.812 410.682C195.942 410.77 196.108 410.814 196.308 410.814ZM200.967 408.65L200.516 408.777C200.487 408.702 200.445 408.629 200.39 408.558C200.336 408.486 200.262 408.426 200.168 408.379C200.075 408.332 199.955 408.309 199.808 408.309C199.608 408.309 199.441 408.355 199.308 408.447C199.176 408.538 199.11 408.654 199.11 408.794C199.11 408.919 199.155 409.018 199.246 409.091C199.337 409.163 199.479 409.223 199.672 409.272L200.158 409.391C200.45 409.462 200.668 409.571 200.812 409.717C200.955 409.862 201.027 410.049 201.027 410.277C201.027 410.465 200.973 410.633 200.865 410.78C200.759 410.928 200.61 411.044 200.418 411.13C200.226 411.215 200.003 411.258 199.749 411.258C199.415 411.258 199.139 411.185 198.92 411.04C198.701 410.895 198.563 410.684 198.504 410.405L198.982 410.286C199.027 410.462 199.113 410.594 199.24 410.682C199.367 410.77 199.534 410.814 199.74 410.814C199.975 410.814 200.161 410.765 200.298 410.665C200.438 410.564 200.507 410.444 200.507 410.303C200.507 410.189 200.467 410.094 200.388 410.017C200.308 409.939 200.186 409.881 200.021 409.843L199.476 409.715C199.176 409.644 198.956 409.534 198.816 409.385C198.676 409.234 198.607 409.046 198.607 408.82C198.607 408.635 198.659 408.472 198.762 408.33C198.867 408.188 199.01 408.076 199.191 407.995C199.372 407.914 199.578 407.874 199.808 407.874C200.132 407.874 200.387 407.945 200.571 408.087C200.757 408.229 200.889 408.417 200.967 408.65ZM201.784 411.189V407.917H202.287V411.189H201.784ZM202.04 407.371C201.942 407.371 201.857 407.338 201.786 407.271C201.717 407.204 201.682 407.124 201.682 407.03C201.682 406.937 201.717 406.856 201.786 406.789C201.857 406.723 201.942 406.689 202.04 406.689C202.138 406.689 202.222 406.723 202.291 406.789C202.362 406.856 202.398 406.937 202.398 407.03C202.398 407.124 202.362 407.204 202.291 407.271C202.222 407.338 202.138 407.371 202.04 407.371ZM203.208 411.189V407.917H203.694V408.411H203.728C203.787 408.249 203.895 408.118 204.052 408.017C204.208 407.916 204.384 407.865 204.58 407.865C204.617 407.865 204.663 407.866 204.719 407.868C204.774 407.869 204.816 407.871 204.844 407.874V408.385C204.827 408.381 204.788 408.375 204.727 408.366C204.667 408.356 204.604 408.351 204.537 408.351C204.378 408.351 204.236 408.385 204.111 408.451C203.988 408.517 203.89 408.608 203.817 408.724C203.746 408.839 203.711 408.971 203.711 409.118V411.189H203.208ZM207.196 411.189V406.826H209.83V407.294H207.724V408.769H209.693V409.238H207.724V410.721H209.864V411.189H207.196ZM211.038 412.417C210.952 412.417 210.876 412.41 210.81 412.395C210.743 412.383 210.697 412.37 210.671 412.357L210.799 411.914C210.921 411.945 211.029 411.956 211.123 411.948C211.217 411.939 211.3 411.897 211.372 411.822C211.446 411.748 211.513 411.628 211.575 411.462L211.668 411.206L210.458 407.917H211.004L211.907 410.525H211.941L212.844 407.917H213.39L212.001 411.667C211.938 411.836 211.861 411.976 211.768 412.086C211.676 412.199 211.569 412.282 211.447 412.336C211.326 412.39 211.19 412.417 211.038 412.417ZM214.054 411.189V407.917H214.539V408.428H214.582C214.65 408.253 214.76 408.118 214.912 408.021C215.064 407.923 215.247 407.874 215.46 407.874C215.676 407.874 215.855 407.923 215.999 408.021C216.144 408.118 216.257 408.253 216.338 408.428H216.372C216.456 408.259 216.581 408.125 216.749 408.025C216.917 407.924 217.118 407.874 217.352 407.874C217.645 407.874 217.884 407.966 218.07 408.149C218.256 408.331 218.349 408.614 218.349 408.999V411.189H217.846V408.999C217.846 408.758 217.78 408.585 217.648 408.481C217.516 408.378 217.36 408.326 217.181 408.326C216.951 408.326 216.773 408.395 216.647 408.535C216.52 408.672 216.457 408.847 216.457 409.059V411.189H215.946V408.948C215.946 408.762 215.885 408.612 215.765 408.498C215.644 408.383 215.488 408.326 215.298 408.326C215.167 408.326 215.045 408.361 214.931 408.43C214.819 408.5 214.728 408.596 214.659 408.72C214.591 408.842 214.556 408.983 214.556 409.144V411.189H214.054ZM220.641 411.258C220.325 411.258 220.053 411.188 219.825 411.049C219.597 410.908 219.422 410.712 219.298 410.461C219.176 410.208 219.115 409.914 219.115 409.579C219.115 409.243 219.176 408.948 219.298 408.692C219.422 408.435 219.594 408.235 219.814 408.091C220.036 407.946 220.294 407.874 220.589 407.874C220.76 407.874 220.928 407.902 221.094 407.959C221.261 408.016 221.412 408.108 221.548 408.236C221.685 408.363 221.793 408.53 221.874 408.739C221.955 408.948 221.996 409.205 221.996 409.51V409.723H219.473V409.289H221.484C221.484 409.104 221.447 408.939 221.374 408.794C221.301 408.65 221.197 408.535 221.062 408.451C220.929 408.368 220.771 408.326 220.589 408.326C220.389 408.326 220.216 408.375 220.07 408.475C219.925 408.573 219.813 408.701 219.735 408.858C219.657 409.016 219.618 409.185 219.618 409.365V409.655C219.618 409.902 219.661 410.112 219.746 410.284C219.832 410.454 219.952 410.584 220.106 410.674C220.259 410.762 220.437 410.806 220.641 410.806C220.773 410.806 220.892 410.787 220.999 410.75C221.107 410.712 221.2 410.655 221.278 410.58C221.356 410.503 221.416 410.408 221.459 410.294L221.945 410.431C221.893 410.596 221.808 410.74 221.687 410.865C221.566 410.989 221.417 411.086 221.239 411.155C221.062 411.223 220.862 411.258 220.641 411.258ZM223.263 409.221V411.189H222.761V407.917H223.246V408.428H223.289C223.366 408.262 223.482 408.128 223.638 408.027C223.795 407.925 223.996 407.874 224.244 407.874C224.465 407.874 224.659 407.919 224.825 408.01C224.991 408.1 225.121 408.236 225.213 408.419C225.305 408.601 225.352 408.831 225.352 409.11V411.189H224.849V409.144C224.849 408.887 224.782 408.687 224.648 408.543C224.515 408.398 224.332 408.326 224.099 408.326C223.938 408.326 223.795 408.361 223.668 408.43C223.543 408.5 223.445 408.601 223.372 408.735C223.3 408.868 223.263 409.03 223.263 409.221ZM228.026 411.189V406.826H228.554V408.99H228.606L230.566 406.826H231.256L229.424 408.794L231.256 411.189H230.617L229.1 409.161L228.554 409.775V411.189H228.026ZM232.119 411.189H231.565L233.167 406.826H233.713L235.315 411.189H234.761L233.457 407.516H233.423L232.119 411.189ZM232.324 409.485H234.557V409.954H232.324V409.485ZM235.175 406.826H235.78L236.99 408.863H237.041L238.251 406.826H238.856L237.28 409.391V411.189H236.751V409.391L235.175 406.826ZM239.273 411.189H238.719L240.322 406.826H240.867L242.469 411.189H241.915L240.611 407.516H240.577L239.273 411.189ZM239.478 409.485H241.711V409.954H239.478V409.485ZM243.149 411.189V406.826H244.675C244.979 406.826 245.229 406.878 245.427 406.983C245.624 407.087 245.771 407.227 245.868 407.403C245.964 407.578 246.013 407.772 246.013 407.985C246.013 408.172 245.979 408.327 245.913 408.449C245.847 408.571 245.761 408.668 245.653 408.739C245.546 408.81 245.43 408.863 245.305 408.897V408.939C245.439 408.948 245.573 408.995 245.708 409.08C245.843 409.165 245.956 409.287 246.047 409.446C246.138 409.606 246.183 409.8 246.183 410.03C246.183 410.249 246.134 410.446 246.034 410.62C245.935 410.795 245.778 410.934 245.563 411.036C245.349 411.138 245.07 411.189 244.726 411.189H243.149ZM243.678 410.721H244.726C245.071 410.721 245.316 410.654 245.461 410.52C245.607 410.385 245.68 410.222 245.68 410.03C245.68 409.883 245.643 409.746 245.567 409.621C245.492 409.495 245.385 409.394 245.246 409.319C245.107 409.242 244.942 409.204 244.751 409.204H243.678V410.721ZM243.678 408.743H244.658C244.817 408.743 244.96 408.712 245.088 408.65C245.217 408.587 245.32 408.499 245.395 408.385C245.472 408.272 245.51 408.138 245.51 407.985C245.51 407.793 245.443 407.63 245.31 407.497C245.176 407.362 244.964 407.294 244.675 407.294H243.678V408.743ZM247.23 411.189H246.676L248.279 406.826H248.824L250.426 411.189H249.873L248.569 407.516H248.534L247.23 411.189ZM247.435 409.485H249.668V409.954H247.435V409.485ZM253.493 407.917C253.467 407.701 253.363 407.533 253.181 407.414C253 407.294 252.777 407.235 252.512 407.235C252.319 407.235 252.15 407.266 252.005 407.329C251.862 407.391 251.75 407.477 251.669 407.586C251.589 407.696 251.549 407.82 251.549 407.959C251.549 408.076 251.577 408.176 251.632 408.26C251.689 408.342 251.762 408.411 251.85 408.466C251.938 408.52 252.03 408.565 252.127 408.601C252.223 408.635 252.312 408.662 252.393 408.684L252.836 408.803C252.95 408.833 253.076 408.874 253.216 408.927C253.356 408.979 253.49 409.051 253.618 409.142C253.748 409.231 253.854 409.346 253.938 409.487C254.022 409.628 254.064 409.8 254.064 410.005C254.064 410.24 254.002 410.454 253.878 410.644C253.756 410.834 253.577 410.986 253.341 411.098C253.107 411.21 252.822 411.266 252.487 411.266C252.174 411.266 251.904 411.216 251.675 411.115C251.448 411.014 251.269 410.873 251.138 410.693C251.009 410.512 250.936 410.303 250.919 410.064H251.464C251.478 410.229 251.534 410.365 251.63 410.473C251.728 410.58 251.852 410.66 252.001 410.712C252.152 410.763 252.314 410.789 252.487 410.789C252.689 410.789 252.87 410.756 253.03 410.691C253.191 410.624 253.318 410.532 253.412 410.414C253.505 410.294 253.552 410.155 253.552 409.996C253.552 409.851 253.512 409.733 253.431 409.642C253.35 409.552 253.243 409.478 253.111 409.421C252.979 409.364 252.836 409.314 252.683 409.272L252.146 409.118C251.805 409.02 251.535 408.88 251.336 408.699C251.137 408.517 251.038 408.279 251.038 407.985C251.038 407.74 251.104 407.527 251.236 407.346C251.37 407.162 251.549 407.02 251.773 406.919C251.999 406.817 252.251 406.766 252.529 406.766C252.811 406.766 253.061 406.816 253.279 406.917C253.498 407.017 253.672 407.153 253.799 407.326C253.929 407.5 253.997 407.696 254.004 407.917H253.493ZM252.274 411.172H252.691L252.657 411.343C252.768 411.36 252.87 411.406 252.962 411.481C253.054 411.558 253.1 411.679 253.1 411.846C253.1 412.029 253.024 412.178 252.873 412.293C252.722 412.41 252.5 412.468 252.206 412.468L252.189 412.135C252.321 412.135 252.43 412.114 252.517 412.071C252.605 412.03 252.649 411.961 252.649 411.863C252.649 411.765 252.613 411.698 252.54 411.662C252.468 411.627 252.35 411.603 252.189 411.59L252.274 411.172ZM255.461 406.826V411.189H254.932V406.826H255.461Z" fill="black"/>
<path d="M121.056 342.243C119.097 342.243 117.181 341.661 115.551 340.573C113.922 339.484 112.652 337.937 111.902 336.126C111.152 334.316 110.956 332.323 111.338 330.401C111.721 328.479 112.664 326.714 114.05 325.328L121.056 332.334L121.056 342.243Z" fill="black"/>
<defs>
<filter id="filter0_d_20_16" x="85" y="235" width="205" height="205" filterUnits="userSpaceOnUse" color-interpolation-filters="sRGB">
<feFlood flood-opacity="0" result="BackgroundImageFix"/>
<feColorMatrix in="SourceAlpha" type="matrix" values="0 0 0 0 0 0 0 0 0 0 0 0 0 0 0 0 0 0 127 0" result="hardAlpha"/>
<feOffset dy="4"/>
<feGaussianBlur stdDeviation="2"/>
<feComposite in2="hardAlpha" operator="out"/>
<feColorMatrix type="matrix" values="0 0 0 0 0 0 0 0 0 0 0 0 0 0 0 0 0 0 0.25 0"/>
<feBlend mode="normal" in2="BackgroundImageFix" result="effect1_dropShadow_20_16"/>
<feBlend mode="normal" in="SourceGraphic" in2="effect1_dropShadow_20_16" result="shape"/>
</filter>
<linearGradient id="paint0_linear_20_16" x1="187.5" y1="0" x2="187.5" y2="667" gradientUnits="userSpaceOnUse">
<stop stop-color="#9E479E"/>
<stop offset="1"/>
</linearGradient>
</defs>
</svg>
