<svg width="375" height="812" viewBox="0 0 375 812" fill="none" xmlns="http://www.w3.org/2000/svg">
<rect width="375" height="812" fill="url(#paint0_linear_20_23)"/>
<g filter="url(#filter0_d_20_23)">
<rect x="89" y="307" width="197" height="197" rx="34" fill="white"/>
</g>
<path d="M130.638 416.604V390.422H139.484C141.538 390.422 143.217 390.792 144.521 391.534C145.834 392.267 146.805 393.26 147.436 394.513C148.067 395.765 148.382 397.163 148.382 398.706C148.382 400.248 148.067 401.65 147.436 402.912C146.814 404.173 145.851 405.179 144.547 405.929C143.243 406.67 141.573 407.041 139.536 407.041H133.195V404.229H139.433C140.84 404.229 141.969 403.986 142.821 403.5C143.673 403.014 144.291 402.358 144.675 401.531C145.067 400.696 145.263 399.754 145.263 398.706C145.263 397.658 145.067 396.72 144.675 395.893C144.291 395.067 143.669 394.419 142.808 393.95C141.948 393.473 140.805 393.234 139.382 393.234H133.808V416.604H130.638ZM153.08 416.604V396.967H155.995V399.933H156.2C156.558 398.962 157.205 398.173 158.143 397.568C159.08 396.963 160.137 396.66 161.313 396.66C161.535 396.66 161.812 396.665 162.144 396.673C162.477 396.682 162.728 396.694 162.899 396.712V399.78C162.796 399.754 162.562 399.716 162.195 399.665C161.837 399.605 161.458 399.575 161.058 399.575C160.103 399.575 159.251 399.775 158.501 400.176C157.759 400.568 157.171 401.113 156.737 401.812C156.31 402.503 156.097 403.291 156.097 404.177V416.604H153.08ZM173.854 417.013C172.082 417.013 170.526 416.591 169.188 415.747C167.859 414.903 166.819 413.723 166.069 412.206C165.327 410.689 164.957 408.916 164.957 406.888C164.957 404.842 165.327 403.057 166.069 401.531C166.819 400.006 167.859 398.821 169.188 397.977C170.526 397.133 172.082 396.712 173.854 396.712C175.627 396.712 177.178 397.133 178.508 397.977C179.846 398.821 180.886 400.006 181.627 401.531C182.377 403.057 182.752 404.842 182.752 406.888C182.752 408.916 182.377 410.689 181.627 412.206C180.886 413.723 179.846 414.903 178.508 415.747C177.178 416.591 175.627 417.013 173.854 417.013ZM173.854 414.302C175.201 414.302 176.309 413.957 177.178 413.267C178.048 412.577 178.691 411.669 179.109 410.544C179.526 409.419 179.735 408.2 179.735 406.888C179.735 405.575 179.526 404.352 179.109 403.219C178.691 402.085 178.048 401.169 177.178 400.47C176.309 399.771 175.201 399.422 173.854 399.422C172.508 399.422 171.4 399.771 170.531 400.47C169.661 401.169 169.018 402.085 168.6 403.219C168.183 404.352 167.974 405.575 167.974 406.888C167.974 408.2 168.183 409.419 168.6 410.544C169.018 411.669 169.661 412.577 170.531 413.267C171.4 413.957 172.508 414.302 173.854 414.302ZM196.102 396.967V399.524H185.517V396.967H196.102ZM188.687 416.604V394.257C188.687 393.132 188.951 392.194 189.48 391.444C190.008 390.694 190.694 390.132 191.538 389.757C192.382 389.382 193.272 389.194 194.21 389.194C194.951 389.194 195.557 389.254 196.025 389.373C196.494 389.493 196.843 389.604 197.074 389.706L196.204 392.314C196.051 392.263 195.838 392.199 195.565 392.122C195.301 392.045 194.951 392.007 194.517 392.007C193.52 392.007 192.799 392.258 192.356 392.761C191.922 393.264 191.704 394.001 191.704 394.973V416.604H188.687ZM200.33 416.604V396.967H203.347V416.604H200.33ZM201.864 393.694C201.276 393.694 200.769 393.494 200.343 393.094C199.926 392.693 199.717 392.212 199.717 391.649C199.717 391.087 199.926 390.605 200.343 390.204C200.769 389.804 201.276 389.604 201.864 389.604C202.452 389.604 202.955 389.804 203.373 390.204C203.799 390.605 204.012 391.087 204.012 391.649C204.012 392.212 203.799 392.693 203.373 393.094C202.955 393.494 202.452 393.694 201.864 393.694ZM211.89 390.422V416.604H208.873V390.422H211.89ZM225.649 417.013C223.757 417.013 222.125 416.595 220.753 415.76C219.389 414.916 218.337 413.74 217.595 412.231C216.862 410.714 216.496 408.95 216.496 406.939C216.496 404.927 216.862 403.155 217.595 401.621C218.337 400.078 219.368 398.876 220.689 398.015C222.019 397.146 223.57 396.712 225.342 396.712C226.365 396.712 227.375 396.882 228.372 397.223C229.369 397.564 230.277 398.118 231.095 398.885C231.913 399.643 232.565 400.649 233.051 401.902C233.537 403.155 233.78 404.697 233.78 406.53V407.808H218.644V405.2H230.712C230.712 404.092 230.49 403.104 230.047 402.234C229.612 401.365 228.99 400.679 228.18 400.176C227.379 399.673 226.433 399.422 225.342 399.422C224.141 399.422 223.101 399.72 222.223 400.317C221.354 400.905 220.685 401.672 220.216 402.618C219.747 403.564 219.513 404.578 219.513 405.66V407.399C219.513 408.882 219.769 410.139 220.28 411.17C220.8 412.193 221.52 412.973 222.44 413.51C223.361 414.038 224.43 414.302 225.649 414.302C226.442 414.302 227.158 414.192 227.797 413.97C228.445 413.74 229.003 413.399 229.472 412.947C229.94 412.487 230.303 411.916 230.558 411.234L233.473 412.052C233.166 413.041 232.651 413.91 231.926 414.66C231.202 415.402 230.307 415.981 229.242 416.399C228.176 416.808 226.979 417.013 225.649 417.013ZM238.369 416.604V396.967H241.284V399.933H241.489C241.847 398.962 242.494 398.173 243.432 397.568C244.369 396.963 245.426 396.66 246.602 396.66C246.824 396.66 247.101 396.665 247.433 396.673C247.766 396.682 248.017 396.694 248.188 396.712V399.78C248.085 399.754 247.851 399.716 247.484 399.665C247.126 399.605 246.747 399.575 246.347 399.575C245.392 399.575 244.54 399.775 243.79 400.176C243.048 400.568 242.46 401.113 242.026 401.812C241.6 402.503 241.386 403.291 241.386 404.177V416.604H238.369Z" fill="black"/>
<path d="M120.546 414.243L120.533 424.151L253.615 423.939" stroke="black"/>
<path d="M131.672 483.189H131.118L132.72 478.826H133.266L134.868 483.189H134.314L133.01 479.516H132.976L131.672 483.189ZM131.876 481.485H134.109V481.954H131.876V481.485ZM135.982 478.826V483.189H135.479V478.826H135.982ZM137.406 478.826V483.189H136.903V478.826H137.406ZM140.015 483.189V479.917H140.5V480.411H140.534C140.594 480.249 140.702 480.118 140.858 480.017C141.015 479.916 141.191 479.865 141.387 479.865C141.424 479.865 141.47 479.866 141.525 479.868C141.581 479.869 141.623 479.871 141.651 479.874V480.385C141.634 480.381 141.595 480.375 141.534 480.366C141.474 480.356 141.411 480.351 141.344 480.351C141.185 480.351 141.043 480.385 140.918 480.451C140.794 480.517 140.696 480.608 140.624 480.724C140.553 480.839 140.517 480.971 140.517 481.118V483.189H140.015ZM142.247 483.189V479.917H142.75V483.189H142.247ZM142.503 479.371C142.405 479.371 142.32 479.338 142.249 479.271C142.179 479.204 142.145 479.124 142.145 479.03C142.145 478.937 142.179 478.856 142.249 478.789C142.32 478.723 142.405 478.689 142.503 478.689C142.601 478.689 142.684 478.723 142.754 478.789C142.825 478.856 142.861 478.937 142.861 479.03C142.861 479.124 142.825 479.204 142.754 479.271C142.684 479.338 142.601 479.371 142.503 479.371ZM144.992 484.485C144.749 484.485 144.54 484.454 144.365 484.391C144.191 484.33 144.045 484.249 143.929 484.148C143.814 484.049 143.722 483.942 143.654 483.829L144.054 483.547C144.1 483.607 144.157 483.675 144.227 483.752C144.297 483.83 144.392 483.897 144.512 483.954C144.635 484.012 144.794 484.042 144.992 484.042C145.256 484.042 145.474 483.978 145.646 483.85C145.818 483.722 145.904 483.522 145.904 483.249V482.584H145.861C145.824 482.644 145.772 482.718 145.703 482.806C145.637 482.892 145.54 482.97 145.414 483.038C145.289 483.105 145.12 483.138 144.907 483.138C144.642 483.138 144.405 483.076 144.195 482.951C143.986 482.826 143.821 482.644 143.698 482.405C143.578 482.167 143.517 481.877 143.517 481.536C143.517 481.201 143.576 480.909 143.694 480.66C143.812 480.41 143.976 480.217 144.186 480.081C144.397 479.943 144.64 479.874 144.915 479.874C145.128 479.874 145.297 479.91 145.422 479.981C145.549 480.05 145.645 480.13 145.712 480.219C145.78 480.307 145.833 480.38 145.87 480.437H145.921V479.917H146.407V483.283C146.407 483.564 146.343 483.793 146.215 483.969C146.088 484.147 145.918 484.277 145.703 484.359C145.49 484.443 145.253 484.485 144.992 484.485ZM144.975 482.687C145.176 482.687 145.347 482.64 145.486 482.548C145.625 482.456 145.731 482.323 145.804 482.15C145.876 481.976 145.912 481.769 145.912 481.527C145.912 481.292 145.877 481.084 145.806 480.903C145.735 480.723 145.63 480.581 145.49 480.479C145.351 480.377 145.179 480.326 144.975 480.326C144.762 480.326 144.584 480.38 144.442 480.488C144.301 480.596 144.196 480.74 144.125 480.922C144.055 481.104 144.02 481.306 144.02 481.527C144.02 481.755 144.056 481.956 144.127 482.13C144.199 482.304 144.306 482.44 144.446 482.539C144.588 482.637 144.765 482.687 144.975 482.687ZM147.83 481.221V483.189H147.327V478.826H147.83V480.428H147.873C147.949 480.259 148.064 480.125 148.218 480.025C148.373 479.924 148.578 479.874 148.836 479.874C149.059 479.874 149.254 479.919 149.422 480.008C149.589 480.096 149.719 480.232 149.811 480.415C149.905 480.597 149.952 480.829 149.952 481.11V483.189H149.449V481.144C149.449 480.884 149.382 480.683 149.247 480.541C149.113 480.397 148.928 480.326 148.691 480.326C148.526 480.326 148.378 480.361 148.248 480.43C148.118 480.5 148.016 480.601 147.941 480.735C147.867 480.868 147.83 481.03 147.83 481.221ZM152.295 479.917V480.343H150.599V479.917H152.295ZM151.094 479.133H151.596V482.252C151.596 482.394 151.617 482.5 151.658 482.571C151.701 482.641 151.755 482.688 151.82 482.712C151.887 482.735 151.957 482.746 152.031 482.746C152.086 482.746 152.132 482.743 152.167 482.738C152.203 482.731 152.231 482.725 152.253 482.721L152.355 483.172C152.321 483.185 152.273 483.198 152.212 483.211C152.151 483.225 152.074 483.232 151.98 483.232C151.838 483.232 151.699 483.201 151.562 483.14C151.427 483.079 151.315 482.986 151.226 482.861C151.138 482.736 151.094 482.579 151.094 482.388V479.133ZM155.311 480.65L154.86 480.777C154.831 480.702 154.789 480.629 154.734 480.558C154.68 480.486 154.606 480.426 154.512 480.379C154.418 480.332 154.298 480.309 154.152 480.309C153.952 480.309 153.785 480.355 153.651 480.447C153.519 480.538 153.453 480.654 153.453 480.794C153.453 480.919 153.499 481.018 153.59 481.091C153.681 481.163 153.823 481.223 154.016 481.272L154.502 481.391C154.794 481.462 155.012 481.571 155.156 481.717C155.299 481.862 155.371 482.049 155.371 482.277C155.371 482.465 155.317 482.633 155.209 482.78C155.102 482.928 154.953 483.044 154.762 483.13C154.57 483.215 154.347 483.258 154.092 483.258C153.759 483.258 153.482 483.185 153.264 483.04C153.045 482.895 152.906 482.684 152.848 482.405L153.325 482.286C153.371 482.462 153.457 482.594 153.583 482.682C153.711 482.77 153.878 482.814 154.084 482.814C154.318 482.814 154.504 482.765 154.642 482.665C154.781 482.564 154.851 482.444 154.851 482.303C154.851 482.189 154.811 482.094 154.732 482.017C154.652 481.939 154.53 481.881 154.365 481.843L153.82 481.715C153.52 481.644 153.3 481.534 153.159 481.385C153.02 481.234 152.95 481.046 152.95 480.82C152.95 480.635 153.002 480.472 153.106 480.33C153.211 480.188 153.354 480.076 153.534 479.995C153.716 479.914 153.922 479.874 154.152 479.874C154.476 479.874 154.73 479.945 154.915 480.087C155.101 480.229 155.233 480.417 155.311 480.65ZM157.815 483.189V479.917H158.301V480.411H158.335C158.395 480.249 158.503 480.118 158.659 480.017C158.815 479.916 158.991 479.865 159.187 479.865C159.224 479.865 159.271 479.866 159.326 479.868C159.381 479.869 159.423 479.871 159.452 479.874V480.385C159.435 480.381 159.396 480.375 159.335 480.366C159.275 480.356 159.212 480.351 159.145 480.351C158.986 480.351 158.844 480.385 158.719 480.451C158.595 480.517 158.497 480.608 158.425 480.724C158.354 480.839 158.318 480.971 158.318 481.118V483.189H157.815ZM161.32 483.258C161.005 483.258 160.733 483.188 160.504 483.049C160.277 482.908 160.102 482.712 159.978 482.461C159.856 482.208 159.795 481.914 159.795 481.579C159.795 481.243 159.856 480.948 159.978 480.692C160.102 480.435 160.273 480.235 160.494 480.091C160.715 479.946 160.974 479.874 161.269 479.874C161.44 479.874 161.608 479.902 161.774 479.959C161.94 480.016 162.092 480.108 162.228 480.236C162.364 480.363 162.473 480.53 162.554 480.739C162.635 480.948 162.675 481.205 162.675 481.51V481.723H160.153V481.289H162.164C162.164 481.104 162.127 480.939 162.053 480.794C161.981 480.65 161.877 480.535 161.742 480.451C161.609 480.368 161.451 480.326 161.269 480.326C161.069 480.326 160.896 480.375 160.749 480.475C160.604 480.573 160.493 480.701 160.415 480.858C160.337 481.016 160.298 481.185 160.298 481.365V481.655C160.298 481.902 160.34 482.112 160.425 482.284C160.512 482.454 160.632 482.584 160.786 482.674C160.939 482.762 161.117 482.806 161.32 482.806C161.452 482.806 161.572 482.787 161.678 482.75C161.786 482.712 161.879 482.655 161.957 482.58C162.036 482.503 162.096 482.408 162.138 482.294L162.624 482.431C162.573 482.596 162.487 482.74 162.366 482.865C162.246 482.989 162.097 483.086 161.919 483.155C161.741 483.223 161.542 483.258 161.32 483.258ZM165.759 480.65L165.307 480.777C165.278 480.702 165.236 480.629 165.181 480.558C165.127 480.486 165.053 480.426 164.96 480.379C164.866 480.332 164.746 480.309 164.599 480.309C164.399 480.309 164.232 480.355 164.099 480.447C163.967 480.538 163.901 480.654 163.901 480.794C163.901 480.919 163.946 481.018 164.037 481.091C164.128 481.163 164.27 481.223 164.463 481.272L164.949 481.391C165.241 481.462 165.46 481.571 165.603 481.717C165.746 481.862 165.818 482.049 165.818 482.277C165.818 482.465 165.764 482.633 165.656 482.78C165.55 482.928 165.401 483.044 165.209 483.13C165.017 483.215 164.794 483.258 164.54 483.258C164.206 483.258 163.93 483.185 163.711 483.04C163.492 482.895 163.354 482.684 163.295 482.405L163.773 482.286C163.818 482.462 163.904 482.594 164.031 482.682C164.158 482.77 164.325 482.814 164.531 482.814C164.766 482.814 164.952 482.765 165.089 482.665C165.229 482.564 165.298 482.444 165.298 482.303C165.298 482.189 165.259 482.094 165.179 482.017C165.099 481.939 164.977 481.881 164.812 481.843L164.267 481.715C163.967 481.644 163.747 481.534 163.607 481.385C163.467 481.234 163.398 481.046 163.398 480.82C163.398 480.635 163.45 480.472 163.553 480.33C163.658 480.188 163.801 480.076 163.982 479.995C164.163 479.914 164.369 479.874 164.599 479.874C164.923 479.874 165.178 479.945 165.362 480.087C165.548 480.229 165.68 480.417 165.759 480.65ZM167.947 483.258C167.632 483.258 167.36 483.188 167.131 483.049C166.904 482.908 166.729 482.712 166.605 482.461C166.483 482.208 166.422 481.914 166.422 481.579C166.422 481.243 166.483 480.948 166.605 480.692C166.729 480.435 166.9 480.235 167.121 480.091C167.342 479.946 167.601 479.874 167.896 479.874C168.067 479.874 168.235 479.902 168.401 479.959C168.567 480.016 168.719 480.108 168.855 480.236C168.991 480.363 169.1 480.53 169.181 480.739C169.262 480.948 169.302 481.205 169.302 481.51V481.723H166.78V481.289H168.791C168.791 481.104 168.754 480.939 168.68 480.794C168.608 480.65 168.504 480.535 168.369 480.451C168.236 480.368 168.078 480.326 167.896 480.326C167.696 480.326 167.523 480.375 167.376 480.475C167.231 480.573 167.12 480.701 167.042 480.858C166.964 481.016 166.925 481.185 166.925 481.365V481.655C166.925 481.902 166.967 482.112 167.052 482.284C167.139 482.454 167.259 482.584 167.412 482.674C167.566 482.762 167.744 482.806 167.947 482.806C168.079 482.806 168.199 482.787 168.305 482.75C168.413 482.712 168.506 482.655 168.584 482.58C168.662 482.503 168.723 482.408 168.765 482.294L169.251 482.431C169.2 482.596 169.114 482.74 168.993 482.865C168.873 482.989 168.724 483.086 168.546 483.155C168.368 483.223 168.169 483.258 167.947 483.258ZM170.067 483.189V479.917H170.553V480.411H170.587C170.647 480.249 170.755 480.118 170.911 480.017C171.067 479.916 171.243 479.865 171.439 479.865C171.476 479.865 171.523 479.866 171.578 479.868C171.633 479.869 171.675 479.871 171.704 479.874V480.385C171.687 480.381 171.648 480.375 171.586 480.366C171.527 480.356 171.464 480.351 171.397 480.351C171.238 480.351 171.096 480.385 170.971 480.451C170.847 480.517 170.749 480.608 170.677 480.724C170.606 480.839 170.57 480.971 170.57 481.118V483.189H170.067ZM175.075 479.917L173.865 483.189H173.354L172.144 479.917H172.689L173.592 482.525H173.627L174.53 479.917H175.075ZM176.994 483.258C176.679 483.258 176.407 483.188 176.178 483.049C175.951 482.908 175.775 482.712 175.652 482.461C175.53 482.208 175.469 481.914 175.469 481.579C175.469 481.243 175.53 480.948 175.652 480.692C175.775 480.435 175.947 480.235 176.167 480.091C176.389 479.946 176.648 479.874 176.943 479.874C177.113 479.874 177.282 479.902 177.448 479.959C177.614 480.016 177.765 480.108 177.902 480.236C178.038 480.363 178.147 480.53 178.228 480.739C178.309 480.948 178.349 481.205 178.349 481.51V481.723H175.827V481.289H177.838C177.838 481.104 177.801 480.939 177.727 480.794C177.655 480.65 177.551 480.535 177.416 480.451C177.282 480.368 177.125 480.326 176.943 480.326C176.743 480.326 176.569 480.375 176.423 480.475C176.278 480.573 176.167 480.701 176.089 480.858C176.01 481.016 175.971 481.185 175.971 481.365V481.655C175.971 481.902 176.014 482.112 176.099 482.284C176.186 482.454 176.306 482.584 176.459 482.674C176.613 482.762 176.791 482.806 176.994 482.806C177.126 482.806 177.246 482.787 177.352 482.75C177.46 482.712 177.553 482.655 177.631 482.58C177.709 482.503 177.77 482.408 177.812 482.294L178.298 482.431C178.247 482.596 178.161 482.74 178.04 482.865C177.92 482.989 177.77 483.086 177.593 483.155C177.415 483.223 177.216 483.258 176.994 483.258ZM180.35 483.258C180.077 483.258 179.836 483.189 179.628 483.051C179.419 482.912 179.255 482.716 179.138 482.463C179.02 482.209 178.961 481.908 178.961 481.562C178.961 481.218 179.02 480.919 179.138 480.667C179.255 480.414 179.42 480.218 179.63 480.081C179.84 479.943 180.083 479.874 180.358 479.874C180.572 479.874 180.74 479.91 180.863 479.981C180.988 480.05 181.084 480.13 181.149 480.219C181.216 480.307 181.268 480.38 181.304 480.437H181.347V478.826H181.85V483.189H181.364V482.687H181.304C181.268 482.746 181.215 482.821 181.147 482.912C181.079 483.002 180.981 483.082 180.855 483.153C180.729 483.223 180.56 483.258 180.35 483.258ZM180.418 482.806C180.62 482.806 180.79 482.753 180.929 482.648C181.069 482.542 181.175 482.395 181.247 482.207C181.319 482.018 181.356 481.8 181.356 481.553C181.356 481.309 181.32 481.095 181.249 480.912C181.178 480.727 181.073 480.584 180.934 480.481C180.795 480.378 180.623 480.326 180.418 480.326C180.205 480.326 180.028 480.38 179.885 480.49C179.745 480.598 179.639 480.745 179.568 480.931C179.498 481.115 179.464 481.323 179.464 481.553C179.464 481.786 179.499 481.998 179.57 482.188C179.643 482.377 179.749 482.527 179.89 482.64C180.032 482.75 180.208 482.806 180.418 482.806ZM185.568 481.008C185.568 480.775 185.625 480.562 185.738 480.37C185.852 480.179 186.005 480.026 186.197 479.912C186.388 479.799 186.601 479.742 186.834 479.742C187.035 479.742 187.221 479.785 187.392 479.872C187.564 479.959 187.706 480.077 187.818 480.228C187.93 480.377 188 480.546 188.027 480.735H187.511C187.483 480.588 187.404 480.469 187.275 480.377C187.145 480.283 186.998 480.236 186.834 480.236C186.692 480.236 186.562 480.271 186.446 480.341C186.329 480.41 186.236 480.503 186.167 480.62C186.097 480.736 186.062 480.865 186.062 481.008C186.062 481.15 186.097 481.279 186.167 481.395C186.236 481.512 186.329 481.605 186.446 481.674C186.562 481.744 186.692 481.779 186.834 481.779C186.998 481.779 187.138 481.733 187.251 481.64C187.366 481.547 187.439 481.427 187.469 481.28H187.984C187.957 481.469 187.891 481.639 187.786 481.789C187.681 481.939 187.546 482.057 187.381 482.143C187.218 482.23 187.035 482.273 186.834 482.273C186.601 482.273 186.388 482.216 186.197 482.103C186.005 481.989 185.852 481.836 185.738 481.645C185.625 481.453 185.568 481.24 185.568 481.008ZM186.812 483.258C186.503 483.258 186.211 483.199 185.939 483.083C185.667 482.966 185.428 482.805 185.221 482.599C185.015 482.392 184.853 482.152 184.735 481.881C184.618 481.61 184.561 481.319 184.562 481.008C184.564 480.696 184.623 480.405 184.739 480.134C184.857 479.863 185.019 479.624 185.225 479.418C185.431 479.211 185.67 479.049 185.941 478.932C186.212 478.816 186.503 478.758 186.812 478.758C187.123 478.758 187.415 478.816 187.686 478.932C187.959 479.049 188.197 479.211 188.402 479.418C188.608 479.624 188.769 479.863 188.885 480.134C189.002 480.405 189.061 480.696 189.062 481.008C189.064 481.319 189.006 481.61 188.89 481.881C188.773 482.152 188.612 482.392 188.406 482.599C188.2 482.805 187.961 482.966 187.688 483.083C187.415 483.199 187.123 483.258 186.812 483.258ZM186.812 482.763C187.055 482.763 187.283 482.718 187.496 482.627C187.709 482.536 187.896 482.41 188.057 482.25C188.217 482.089 188.343 481.903 188.434 481.691C188.525 481.478 188.569 481.251 188.568 481.01C188.567 480.767 188.52 480.539 188.429 480.326C188.339 480.113 188.213 479.926 188.052 479.765C187.892 479.605 187.706 479.479 187.494 479.388C187.282 479.297 187.055 479.252 186.812 479.252C186.571 479.252 186.344 479.297 186.133 479.388C185.921 479.479 185.735 479.606 185.574 479.767C185.414 479.928 185.287 480.115 185.195 480.328C185.104 480.539 185.058 480.767 185.057 481.01C185.055 481.25 185.1 481.476 185.191 481.689C185.282 481.901 185.407 482.087 185.568 482.248C185.73 482.408 185.917 482.535 186.128 482.627C186.341 482.718 186.569 482.763 186.812 482.763ZM191.399 478.826H192.004L193.214 480.863H193.266L194.476 478.826H195.081L193.504 481.391V483.189H192.976V481.391L191.399 478.826ZM196.232 483.266C196.024 483.266 195.836 483.227 195.667 483.149C195.498 483.069 195.364 482.955 195.264 482.806C195.165 482.655 195.115 482.473 195.115 482.26C195.115 482.073 195.152 481.921 195.226 481.804C195.3 481.687 195.398 481.594 195.522 481.527C195.646 481.461 195.782 481.411 195.931 481.378C196.082 481.344 196.233 481.317 196.385 481.297C196.584 481.272 196.745 481.253 196.869 481.24C196.994 481.226 197.085 481.202 197.141 481.169C197.2 481.137 197.229 481.08 197.229 480.999V480.982C197.229 480.772 197.171 480.608 197.056 480.492C196.942 480.375 196.77 480.317 196.538 480.317C196.298 480.317 196.11 480.37 195.974 480.475C195.837 480.58 195.741 480.692 195.686 480.812L195.209 480.641C195.294 480.442 195.408 480.287 195.55 480.177C195.693 480.064 195.849 479.986 196.018 479.942C196.189 479.897 196.357 479.874 196.521 479.874C196.626 479.874 196.747 479.887 196.884 479.912C197.021 479.937 197.154 479.987 197.282 480.064C197.411 480.14 197.518 480.256 197.604 480.411C197.689 480.566 197.732 480.773 197.732 481.033V483.189H197.229V482.746H197.203C197.169 482.817 197.112 482.893 197.033 482.974C196.953 483.055 196.847 483.124 196.715 483.181C196.583 483.238 196.422 483.266 196.232 483.266ZM196.308 482.814C196.507 482.814 196.675 482.775 196.811 482.697C196.949 482.619 197.053 482.518 197.122 482.395C197.193 482.271 197.229 482.141 197.229 482.005V481.544C197.207 481.57 197.161 481.593 197.088 481.615C197.017 481.635 196.935 481.652 196.841 481.668C196.749 481.682 196.658 481.695 196.57 481.706C196.484 481.716 196.413 481.725 196.359 481.732C196.229 481.749 196.107 481.777 195.993 481.815C195.881 481.852 195.79 481.908 195.72 481.983C195.652 482.057 195.618 482.158 195.618 482.286C195.618 482.461 195.683 482.593 195.812 482.682C195.942 482.77 196.108 482.814 196.308 482.814ZM200.967 480.65L200.516 480.777C200.487 480.702 200.445 480.629 200.39 480.558C200.336 480.486 200.262 480.426 200.168 480.379C200.075 480.332 199.955 480.309 199.808 480.309C199.608 480.309 199.441 480.355 199.308 480.447C199.176 480.538 199.11 480.654 199.11 480.794C199.11 480.919 199.155 481.018 199.246 481.091C199.337 481.163 199.479 481.223 199.672 481.272L200.158 481.391C200.45 481.462 200.668 481.571 200.812 481.717C200.955 481.862 201.027 482.049 201.027 482.277C201.027 482.465 200.973 482.633 200.865 482.78C200.759 482.928 200.61 483.044 200.418 483.13C200.226 483.215 200.003 483.258 199.749 483.258C199.415 483.258 199.139 483.185 198.92 483.04C198.701 482.895 198.563 482.684 198.504 482.405L198.982 482.286C199.027 482.462 199.113 482.594 199.24 482.682C199.367 482.77 199.534 482.814 199.74 482.814C199.975 482.814 200.161 482.765 200.298 482.665C200.438 482.564 200.507 482.444 200.507 482.303C200.507 482.189 200.467 482.094 200.388 482.017C200.308 481.939 200.186 481.881 200.021 481.843L199.476 481.715C199.176 481.644 198.956 481.534 198.816 481.385C198.676 481.234 198.607 481.046 198.607 480.82C198.607 480.635 198.659 480.472 198.762 480.33C198.867 480.188 199.01 480.076 199.191 479.995C199.372 479.914 199.578 479.874 199.808 479.874C200.132 479.874 200.387 479.945 200.571 480.087C200.757 480.229 200.889 480.417 200.967 480.65ZM201.784 483.189V479.917H202.287V483.189H201.784ZM202.04 479.371C201.942 479.371 201.857 479.338 201.786 479.271C201.717 479.204 201.682 479.124 201.682 479.03C201.682 478.937 201.717 478.856 201.786 478.789C201.857 478.723 201.942 478.689 202.04 478.689C202.138 478.689 202.222 478.723 202.291 478.789C202.362 478.856 202.398 478.937 202.398 479.03C202.398 479.124 202.362 479.204 202.291 479.271C202.222 479.338 202.138 479.371 202.04 479.371ZM203.208 483.189V479.917H203.694V480.411H203.728C203.787 480.249 203.895 480.118 204.052 480.017C204.208 479.916 204.384 479.865 204.58 479.865C204.617 479.865 204.663 479.866 204.719 479.868C204.774 479.869 204.816 479.871 204.844 479.874V480.385C204.827 480.381 204.788 480.375 204.727 480.366C204.667 480.356 204.604 480.351 204.537 480.351C204.378 480.351 204.236 480.385 204.111 480.451C203.988 480.517 203.89 480.608 203.817 480.724C203.746 480.839 203.711 480.971 203.711 481.118V483.189H203.208ZM207.196 483.189V478.826H209.83V479.294H207.724V480.769H209.693V481.238H207.724V482.721H209.864V483.189H207.196ZM211.038 484.417C210.952 484.417 210.876 484.41 210.81 484.395C210.743 484.383 210.697 484.37 210.671 484.357L210.799 483.914C210.921 483.945 211.029 483.956 211.123 483.948C211.217 483.939 211.3 483.897 211.372 483.822C211.446 483.748 211.513 483.628 211.575 483.462L211.668 483.206L210.458 479.917H211.004L211.907 482.525H211.941L212.844 479.917H213.39L212.001 483.667C211.938 483.836 211.861 483.976 211.768 484.086C211.676 484.199 211.569 484.282 211.447 484.336C211.326 484.39 211.19 484.417 211.038 484.417ZM214.054 483.189V479.917H214.539V480.428H214.582C214.65 480.253 214.76 480.118 214.912 480.021C215.064 479.923 215.247 479.874 215.46 479.874C215.676 479.874 215.855 479.923 215.999 480.021C216.144 480.118 216.257 480.253 216.338 480.428H216.372C216.456 480.259 216.581 480.125 216.749 480.025C216.917 479.924 217.118 479.874 217.352 479.874C217.645 479.874 217.884 479.966 218.07 480.149C218.256 480.331 218.349 480.614 218.349 480.999V483.189H217.846V480.999C217.846 480.758 217.78 480.585 217.648 480.481C217.516 480.378 217.36 480.326 217.181 480.326C216.951 480.326 216.773 480.395 216.647 480.535C216.52 480.672 216.457 480.847 216.457 481.059V483.189H215.946V480.948C215.946 480.762 215.885 480.612 215.765 480.498C215.644 480.383 215.488 480.326 215.298 480.326C215.167 480.326 215.045 480.361 214.931 480.43C214.819 480.5 214.728 480.596 214.659 480.72C214.591 480.842 214.556 480.983 214.556 481.144V483.189H214.054ZM220.641 483.258C220.325 483.258 220.053 483.188 219.825 483.049C219.597 482.908 219.422 482.712 219.298 482.461C219.176 482.208 219.115 481.914 219.115 481.579C219.115 481.243 219.176 480.948 219.298 480.692C219.422 480.435 219.594 480.235 219.814 480.091C220.036 479.946 220.294 479.874 220.589 479.874C220.76 479.874 220.928 479.902 221.094 479.959C221.261 480.016 221.412 480.108 221.548 480.236C221.685 480.363 221.793 480.53 221.874 480.739C221.955 480.948 221.996 481.205 221.996 481.51V481.723H219.473V481.289H221.484C221.484 481.104 221.447 480.939 221.374 480.794C221.301 480.65 221.197 480.535 221.062 480.451C220.929 480.368 220.771 480.326 220.589 480.326C220.389 480.326 220.216 480.375 220.07 480.475C219.925 480.573 219.813 480.701 219.735 480.858C219.657 481.016 219.618 481.185 219.618 481.365V481.655C219.618 481.902 219.661 482.112 219.746 482.284C219.832 482.454 219.952 482.584 220.106 482.674C220.259 482.762 220.437 482.806 220.641 482.806C220.773 482.806 220.892 482.787 220.999 482.75C221.107 482.712 221.2 482.655 221.278 482.58C221.356 482.503 221.416 482.408 221.459 482.294L221.945 482.431C221.893 482.596 221.808 482.74 221.687 482.865C221.566 482.989 221.417 483.086 221.239 483.155C221.062 483.223 220.862 483.258 220.641 483.258ZM223.263 481.221V483.189H222.761V479.917H223.246V480.428H223.289C223.366 480.262 223.482 480.128 223.638 480.027C223.795 479.925 223.996 479.874 224.244 479.874C224.465 479.874 224.659 479.919 224.825 480.01C224.991 480.1 225.121 480.236 225.213 480.419C225.305 480.601 225.352 480.831 225.352 481.11V483.189H224.849V481.144C224.849 480.887 224.782 480.687 224.648 480.543C224.515 480.398 224.332 480.326 224.099 480.326C223.938 480.326 223.795 480.361 223.668 480.43C223.543 480.5 223.445 480.601 223.372 480.735C223.3 480.868 223.263 481.03 223.263 481.221ZM228.026 483.189V478.826H228.554V480.99H228.606L230.566 478.826H231.256L229.424 480.794L231.256 483.189H230.617L229.1 481.161L228.554 481.775V483.189H228.026ZM232.119 483.189H231.565L233.167 478.826H233.713L235.315 483.189H234.761L233.457 479.516H233.423L232.119 483.189ZM232.324 481.485H234.557V481.954H232.324V481.485ZM235.175 478.826H235.78L236.99 480.863H237.041L238.251 478.826H238.856L237.28 481.391V483.189H236.751V481.391L235.175 478.826ZM239.273 483.189H238.719L240.322 478.826H240.867L242.469 483.189H241.915L240.611 479.516H240.577L239.273 483.189ZM239.478 481.485H241.711V481.954H239.478V481.485ZM243.149 483.189V478.826H244.675C244.979 478.826 245.229 478.878 245.427 478.983C245.624 479.087 245.771 479.227 245.868 479.403C245.964 479.578 246.013 479.772 246.013 479.985C246.013 480.172 245.979 480.327 245.913 480.449C245.847 480.571 245.761 480.668 245.653 480.739C245.546 480.81 245.43 480.863 245.305 480.897V480.939C245.439 480.948 245.573 480.995 245.708 481.08C245.843 481.165 245.956 481.287 246.047 481.446C246.138 481.606 246.183 481.8 246.183 482.03C246.183 482.249 246.134 482.446 246.034 482.62C245.935 482.795 245.778 482.934 245.563 483.036C245.349 483.138 245.07 483.189 244.726 483.189H243.149ZM243.678 482.721H244.726C245.071 482.721 245.316 482.654 245.461 482.52C245.607 482.385 245.68 482.222 245.68 482.03C245.68 481.883 245.643 481.746 245.567 481.621C245.492 481.495 245.385 481.394 245.246 481.319C245.107 481.242 244.942 481.204 244.751 481.204H243.678V482.721ZM243.678 480.743H244.658C244.817 480.743 244.96 480.712 245.088 480.65C245.217 480.587 245.32 480.499 245.395 480.385C245.472 480.272 245.51 480.138 245.51 479.985C245.51 479.793 245.443 479.63 245.31 479.497C245.176 479.362 244.964 479.294 244.675 479.294H243.678V480.743ZM247.23 483.189H246.676L248.279 478.826H248.824L250.426 483.189H249.873L248.569 479.516H248.534L247.23 483.189ZM247.435 481.485H249.668V481.954H247.435V481.485ZM253.493 479.917C253.467 479.701 253.363 479.533 253.181 479.414C253 479.294 252.777 479.235 252.512 479.235C252.319 479.235 252.15 479.266 252.005 479.329C251.862 479.391 251.75 479.477 251.669 479.586C251.589 479.696 251.549 479.82 251.549 479.959C251.549 480.076 251.577 480.176 251.632 480.26C251.689 480.342 251.762 480.411 251.85 480.466C251.938 480.52 252.03 480.565 252.127 480.601C252.223 480.635 252.312 480.662 252.393 480.684L252.836 480.803C252.95 480.833 253.076 480.874 253.216 480.927C253.356 480.979 253.49 481.051 253.618 481.142C253.748 481.231 253.854 481.346 253.938 481.487C254.022 481.628 254.064 481.8 254.064 482.005C254.064 482.24 254.002 482.454 253.878 482.644C253.756 482.834 253.577 482.986 253.341 483.098C253.107 483.21 252.822 483.266 252.487 483.266C252.174 483.266 251.904 483.216 251.675 483.115C251.448 483.014 251.269 482.873 251.138 482.693C251.009 482.512 250.936 482.303 250.919 482.064H251.464C251.478 482.229 251.534 482.365 251.63 482.473C251.728 482.58 251.852 482.66 252.001 482.712C252.152 482.763 252.314 482.789 252.487 482.789C252.689 482.789 252.87 482.756 253.03 482.691C253.191 482.624 253.318 482.532 253.412 482.414C253.505 482.294 253.552 482.155 253.552 481.996C253.552 481.851 253.512 481.733 253.431 481.642C253.35 481.552 253.243 481.478 253.111 481.421C252.979 481.364 252.836 481.314 252.683 481.272L252.146 481.118C251.805 481.02 251.535 480.88 251.336 480.699C251.137 480.517 251.038 480.279 251.038 479.985C251.038 479.74 251.104 479.527 251.236 479.346C251.37 479.162 251.549 479.02 251.773 478.919C251.999 478.817 252.251 478.766 252.529 478.766C252.811 478.766 253.061 478.816 253.279 478.917C253.498 479.017 253.672 479.153 253.799 479.326C253.929 479.5 253.997 479.696 254.004 479.917H253.493ZM252.274 483.172H252.691L252.657 483.343C252.768 483.36 252.87 483.406 252.962 483.481C253.054 483.558 253.1 483.679 253.1 483.846C253.1 484.029 253.024 484.178 252.873 484.293C252.722 484.41 252.5 484.468 252.206 484.468L252.189 484.135C252.321 484.135 252.43 484.114 252.517 484.071C252.605 484.03 252.649 483.961 252.649 483.863C252.649 483.765 252.613 483.698 252.54 483.662C252.468 483.627 252.35 483.603 252.189 483.59L252.274 483.172ZM255.461 478.826V483.189H254.932V478.826H255.461Z" fill="black"/>
<path d="M121.056 414.243C119.097 414.243 117.181 413.661 115.551 412.573C113.922 411.484 112.652 409.937 111.902 408.126C111.152 406.316 110.956 404.323 111.338 402.401C111.721 400.479 112.664 398.714 114.05 397.328L121.056 404.334L121.056 414.243Z" fill="black"/>
<defs>
<filter id="filter0_d_20_23" x="85" y="307" width="205" height="205" filterUnits="userSpaceOnUse" color-interpolation-filters="sRGB">
<feFlood flood-opacity="0" result="BackgroundImageFix"/>
<feColorMatrix in="SourceAlpha" type="matrix" values="0 0 0 0 0 0 0 0 0 0 0 0 0 0 0 0 0 0 127 0" result="hardAlpha"/>
<feOffset dy="4"/>
<feGaussianBlur stdDeviation="2"/>
<feComposite in2="hardAlpha" operator="out"/>
<feColorMatrix type="matrix" values="0 0 0 0 0 0 0 0 0 0 0 0 0 0 0 0 0 0 0.25 0"/>
<feBlend mode="normal" in2="BackgroundImageFix" result="effect1_dropShadow_20_23"/>
<feBlend mode="normal" in="SourceGraphic" in2="effect1_dropShadow_20_23" result="shape"/>
</filter>
<linearGradient id="paint0_linear_20_23" x1="187.5" y1="0" x2="187.5" y2="812" gradientUnits="userSpaceOnUse">
<stop stop-color="#9E479E"/>
<stop offset="1"/>
</linearGradient>
</defs>
</svg>
