<svg width="320" height="568" viewBox="0 0 320 568" fill="none" xmlns="http://www.w3.org/2000/svg">
<rect width="320" height="568" fill="url(#paint0_linear_20_9)"/>
<g filter="url(#filter0_d_20_9)">
<rect x="76" y="200" width="169" height="169" rx="34" fill="white"/>
</g>
<path d="M111.818 295V271.727H119.682C121.508 271.727 123 272.057 124.159 272.716C125.326 273.367 126.189 274.25 126.75 275.364C127.311 276.477 127.591 277.72 127.591 279.091C127.591 280.462 127.311 281.708 126.75 282.83C126.197 283.951 125.341 284.845 124.182 285.511C123.023 286.17 121.538 286.5 119.727 286.5H114.091V284H119.636C120.886 284 121.89 283.784 122.648 283.352C123.405 282.92 123.955 282.337 124.295 281.602C124.644 280.86 124.818 280.023 124.818 279.091C124.818 278.159 124.644 277.326 124.295 276.591C123.955 275.856 123.402 275.28 122.636 274.864C121.871 274.439 120.856 274.227 119.591 274.227H114.636V295H111.818ZM131.767 295V277.545H134.358V280.182H134.54C134.858 279.318 135.434 278.617 136.267 278.08C137.1 277.542 138.04 277.273 139.085 277.273C139.282 277.273 139.528 277.277 139.824 277.284C140.119 277.292 140.343 277.303 140.494 277.318V280.045C140.403 280.023 140.195 279.989 139.869 279.943C139.551 279.89 139.214 279.864 138.858 279.864C138.009 279.864 137.252 280.042 136.585 280.398C135.926 280.746 135.403 281.231 135.017 281.852C134.638 282.466 134.449 283.167 134.449 283.955V295H131.767ZM150.233 295.364C148.657 295.364 147.275 294.989 146.085 294.239C144.903 293.489 143.979 292.439 143.312 291.091C142.653 289.742 142.324 288.167 142.324 286.364C142.324 284.545 142.653 282.958 143.312 281.602C143.979 280.246 144.903 279.193 146.085 278.443C147.275 277.693 148.657 277.318 150.233 277.318C151.809 277.318 153.188 277.693 154.369 278.443C155.559 279.193 156.483 280.246 157.142 281.602C157.809 282.958 158.142 284.545 158.142 286.364C158.142 288.167 157.809 289.742 157.142 291.091C156.483 292.439 155.559 293.489 154.369 294.239C153.188 294.989 151.809 295.364 150.233 295.364ZM150.233 292.955C151.43 292.955 152.415 292.648 153.188 292.034C153.96 291.42 154.532 290.614 154.903 289.614C155.275 288.614 155.46 287.53 155.46 286.364C155.46 285.197 155.275 284.11 154.903 283.102C154.532 282.095 153.96 281.28 153.188 280.659C152.415 280.038 151.43 279.727 150.233 279.727C149.036 279.727 148.051 280.038 147.278 280.659C146.506 281.28 145.934 282.095 145.562 283.102C145.191 284.11 145.006 285.197 145.006 286.364C145.006 287.53 145.191 288.614 145.562 289.614C145.934 290.614 146.506 291.42 147.278 292.034C148.051 292.648 149.036 292.955 150.233 292.955ZM170.009 277.545V279.818H160.599V277.545H170.009ZM163.418 295V275.136C163.418 274.136 163.652 273.303 164.122 272.636C164.592 271.97 165.202 271.47 165.952 271.136C166.702 270.803 167.493 270.636 168.327 270.636C168.986 270.636 169.524 270.689 169.94 270.795C170.357 270.902 170.668 271 170.872 271.091L170.099 273.409C169.963 273.364 169.774 273.307 169.531 273.239C169.296 273.17 168.986 273.136 168.599 273.136C167.713 273.136 167.073 273.36 166.679 273.807C166.293 274.254 166.099 274.909 166.099 275.773V295H163.418ZM173.767 295V277.545H176.449V295H173.767ZM175.131 274.636C174.608 274.636 174.157 274.458 173.778 274.102C173.407 273.746 173.222 273.318 173.222 272.818C173.222 272.318 173.407 271.89 173.778 271.534C174.157 271.178 174.608 271 175.131 271C175.653 271 176.1 271.178 176.472 271.534C176.85 271.89 177.04 272.318 177.04 272.818C177.04 273.318 176.85 273.746 176.472 274.102C176.1 274.458 175.653 274.636 175.131 274.636ZM184.043 271.727V295H181.361V271.727H184.043ZM196.273 295.364C194.591 295.364 193.14 294.992 191.92 294.25C190.708 293.5 189.773 292.455 189.114 291.114C188.462 289.765 188.136 288.197 188.136 286.409C188.136 284.621 188.462 283.045 189.114 281.682C189.773 280.311 190.689 279.242 191.864 278.477C193.045 277.705 194.424 277.318 196 277.318C196.909 277.318 197.807 277.47 198.693 277.773C199.58 278.076 200.386 278.568 201.114 279.25C201.841 279.924 202.42 280.818 202.852 281.932C203.284 283.045 203.5 284.417 203.5 286.045V287.182H190.045V284.864H200.773C200.773 283.879 200.576 283 200.182 282.227C199.795 281.455 199.242 280.845 198.523 280.398C197.811 279.951 196.97 279.727 196 279.727C194.932 279.727 194.008 279.992 193.227 280.523C192.455 281.045 191.86 281.727 191.443 282.568C191.027 283.409 190.818 284.311 190.818 285.273V286.818C190.818 288.136 191.045 289.254 191.5 290.17C191.962 291.08 192.602 291.773 193.42 292.25C194.239 292.72 195.189 292.955 196.273 292.955C196.977 292.955 197.614 292.856 198.182 292.659C198.758 292.455 199.254 292.152 199.67 291.75C200.087 291.341 200.409 290.833 200.636 290.227L203.227 290.955C202.955 291.833 202.496 292.606 201.852 293.273C201.208 293.932 200.413 294.447 199.466 294.818C198.519 295.182 197.455 295.364 196.273 295.364ZM207.58 295V277.545H210.17V280.182H210.352C210.67 279.318 211.246 278.617 212.08 278.08C212.913 277.542 213.852 277.273 214.898 277.273C215.095 277.273 215.341 277.277 215.636 277.284C215.932 277.292 216.155 277.303 216.307 277.318V280.045C216.216 280.023 216.008 279.989 215.682 279.943C215.364 279.89 215.027 279.864 214.67 279.864C213.822 279.864 213.064 280.042 212.398 280.398C211.739 280.746 211.216 281.231 210.83 281.852C210.451 282.466 210.261 283.167 210.261 283.955V295H207.58Z" fill="black"/>
<path d="M103.062 292L103.051 300.5L217.218 300.319" stroke="black"/>
<path d="M112.589 351H112.128L113.463 347.364H113.918L115.253 351H114.791L113.705 347.939H113.676L112.589 351ZM112.76 349.58H114.621V349.97H112.76V349.58ZM116.181 347.364V351H115.762V347.364H116.181ZM117.368 347.364V351H116.949V347.364H117.368ZM119.542 351V348.273H119.947V348.685H119.975C120.025 348.55 120.115 348.44 120.245 348.356C120.375 348.272 120.522 348.23 120.685 348.23C120.716 348.23 120.754 348.231 120.801 348.232C120.847 348.233 120.882 348.235 120.905 348.237V348.663C120.891 348.66 120.859 348.654 120.808 348.647C120.758 348.639 120.705 348.635 120.65 348.635C120.517 348.635 120.399 348.663 120.295 348.718C120.192 348.773 120.11 348.849 120.05 348.946C119.99 349.042 119.961 349.151 119.961 349.274V351H119.542ZM121.402 351V348.273H121.821V351H121.402ZM121.615 347.818C121.533 347.818 121.463 347.79 121.404 347.735C121.346 347.679 121.317 347.612 121.317 347.534C121.317 347.456 121.346 347.389 121.404 347.333C121.463 347.278 121.533 347.25 121.615 347.25C121.697 347.25 121.767 347.278 121.825 347.333C121.884 347.389 121.913 347.456 121.913 347.534C121.913 347.612 121.884 347.679 121.825 347.735C121.767 347.79 121.697 347.818 121.615 347.818ZM123.689 352.08C123.487 352.08 123.313 352.054 123.167 352.001C123.022 351.951 122.901 351.883 122.803 351.799C122.708 351.716 122.631 351.627 122.574 351.533L122.908 351.298C122.946 351.348 122.994 351.405 123.052 351.469C123.11 351.534 123.189 351.59 123.29 351.637C123.392 351.686 123.525 351.71 123.689 351.71C123.91 351.71 124.091 351.657 124.235 351.55C124.378 351.444 124.449 351.277 124.449 351.05V350.496H124.414C124.383 350.545 124.339 350.607 124.282 350.68C124.227 350.753 124.146 350.817 124.041 350.874C123.937 350.93 123.796 350.957 123.618 350.957C123.398 350.957 123.201 350.905 123.025 350.801C122.851 350.697 122.713 350.545 122.612 350.347C122.511 350.148 122.461 349.906 122.461 349.622C122.461 349.343 122.51 349.1 122.608 348.892C122.706 348.684 122.843 348.523 123.018 348.409C123.193 348.295 123.396 348.237 123.626 348.237C123.803 348.237 123.944 348.267 124.048 348.326C124.153 348.384 124.234 348.45 124.29 348.525C124.346 348.598 124.39 348.659 124.421 348.706H124.464V348.273H124.868V351.078C124.868 351.312 124.815 351.503 124.709 351.65C124.603 351.798 124.461 351.906 124.282 351.975C124.105 352.045 123.907 352.08 123.689 352.08ZM123.675 350.581C123.843 350.581 123.985 350.542 124.101 350.466C124.217 350.389 124.306 350.278 124.366 350.134C124.426 349.989 124.456 349.816 124.456 349.615C124.456 349.419 124.427 349.245 124.368 349.095C124.309 348.944 124.221 348.827 124.105 348.741C123.989 348.656 123.846 348.614 123.675 348.614C123.498 348.614 123.35 348.659 123.231 348.749C123.114 348.839 123.026 348.959 122.967 349.111C122.909 349.262 122.88 349.43 122.88 349.615C122.88 349.804 122.909 349.972 122.969 350.118C123.029 350.262 123.118 350.376 123.235 350.458C123.353 350.54 123.5 350.581 123.675 350.581ZM126.055 349.359V351H125.635V347.364H126.055V348.699H126.09C126.154 348.558 126.25 348.446 126.378 348.363C126.507 348.279 126.678 348.237 126.893 348.237C127.078 348.237 127.241 348.275 127.381 348.349C127.521 348.422 127.629 348.536 127.706 348.688C127.784 348.84 127.823 349.033 127.823 349.267V351H127.404V349.295C127.404 349.079 127.348 348.911 127.235 348.793C127.124 348.673 126.97 348.614 126.772 348.614C126.635 348.614 126.511 348.643 126.403 348.701C126.295 348.759 126.21 348.843 126.147 348.955C126.085 349.066 126.055 349.201 126.055 349.359ZM129.776 348.273V348.628H128.362V348.273H129.776ZM128.774 347.619H129.193V350.219C129.193 350.337 129.21 350.426 129.245 350.485C129.28 350.543 129.325 350.582 129.38 350.602C129.435 350.621 129.494 350.631 129.555 350.631C129.602 350.631 129.64 350.628 129.669 350.624C129.699 350.618 129.722 350.613 129.74 350.609L129.825 350.986C129.797 350.996 129.757 351.007 129.706 351.018C129.656 351.03 129.591 351.036 129.513 351.036C129.395 351.036 129.278 351.01 129.165 350.959C129.052 350.908 128.959 350.831 128.884 350.727C128.811 350.622 128.774 350.491 128.774 350.332V347.619ZM132.289 348.884L131.913 348.99C131.889 348.927 131.854 348.866 131.808 348.807C131.763 348.747 131.701 348.697 131.623 348.658C131.545 348.619 131.445 348.599 131.323 348.599C131.156 348.599 131.017 348.638 130.906 348.715C130.796 348.791 130.741 348.887 130.741 349.004C130.741 349.108 130.779 349.191 130.854 349.251C130.93 349.311 131.048 349.362 131.209 349.402L131.614 349.501C131.858 349.561 132.04 349.651 132.159 349.773C132.279 349.894 132.339 350.049 132.339 350.24C132.339 350.396 132.294 350.536 132.204 350.659C132.115 350.782 131.991 350.879 131.831 350.95C131.671 351.021 131.485 351.057 131.273 351.057C130.995 351.057 130.765 350.996 130.583 350.876C130.4 350.755 130.285 350.579 130.236 350.347L130.634 350.247C130.672 350.394 130.744 350.504 130.849 350.577C130.956 350.651 131.095 350.688 131.266 350.688C131.462 350.688 131.617 350.646 131.731 350.563C131.847 350.479 131.905 350.379 131.905 350.261C131.905 350.167 131.872 350.087 131.806 350.023C131.74 349.958 131.638 349.91 131.501 349.878L131.046 349.771C130.796 349.712 130.613 349.62 130.496 349.496C130.38 349.371 130.322 349.214 130.322 349.026C130.322 348.872 130.365 348.736 130.451 348.617C130.539 348.499 130.658 348.406 130.808 348.338C130.96 348.271 131.131 348.237 131.323 348.237C131.593 348.237 131.805 348.296 131.959 348.415C132.114 348.533 132.224 348.689 132.289 348.884ZM134.376 351V348.273H134.781V348.685H134.809C134.859 348.55 134.949 348.44 135.079 348.356C135.209 348.272 135.356 348.23 135.519 348.23C135.55 348.23 135.588 348.231 135.635 348.232C135.681 348.233 135.716 348.235 135.739 348.237V348.663C135.725 348.66 135.693 348.654 135.642 348.647C135.592 348.639 135.539 348.635 135.484 348.635C135.351 348.635 135.233 348.663 135.129 348.718C135.026 348.773 134.944 348.849 134.884 348.946C134.824 349.042 134.795 349.151 134.795 349.274V351H134.376ZM137.297 351.057C137.034 351.057 136.807 350.999 136.616 350.883C136.427 350.766 136.281 350.602 136.178 350.393C136.076 350.182 136.025 349.937 136.025 349.658C136.025 349.378 136.076 349.132 136.178 348.919C136.281 348.705 136.424 348.538 136.608 348.418C136.792 348.298 137.008 348.237 137.254 348.237C137.396 348.237 137.536 348.261 137.675 348.308C137.813 348.356 137.939 348.433 138.053 348.539C138.167 348.644 138.257 348.784 138.325 348.958C138.392 349.132 138.426 349.346 138.426 349.601V349.778H136.324V349.416H138C138 349.262 137.969 349.125 137.907 349.004C137.847 348.884 137.761 348.788 137.648 348.718C137.537 348.649 137.405 348.614 137.254 348.614C137.087 348.614 136.943 348.655 136.821 348.738C136.7 348.82 136.607 348.926 136.542 349.058C136.477 349.189 136.444 349.33 136.444 349.48V349.722C136.444 349.928 136.48 350.102 136.551 350.245C136.623 350.387 136.723 350.496 136.851 350.57C136.979 350.644 137.127 350.68 137.297 350.68C137.407 350.68 137.506 350.665 137.595 350.634C137.685 350.602 137.762 350.555 137.827 350.492C137.893 350.428 137.943 350.349 137.978 350.254L138.383 350.368C138.341 350.505 138.269 350.626 138.168 350.73C138.068 350.833 137.943 350.914 137.795 350.972C137.647 351.028 137.481 351.057 137.297 351.057ZM140.995 348.884L140.619 348.99C140.595 348.927 140.56 348.866 140.514 348.807C140.469 348.747 140.407 348.697 140.329 348.658C140.251 348.619 140.151 348.599 140.029 348.599C139.862 348.599 139.723 348.638 139.612 348.715C139.502 348.791 139.447 348.887 139.447 349.004C139.447 349.108 139.485 349.191 139.56 349.251C139.636 349.311 139.754 349.362 139.915 349.402L140.32 349.501C140.564 349.561 140.746 349.651 140.865 349.773C140.985 349.894 141.045 350.049 141.045 350.24C141.045 350.396 141 350.536 140.91 350.659C140.821 350.782 140.697 350.879 140.537 350.95C140.377 351.021 140.191 351.057 139.979 351.057C139.701 351.057 139.471 350.996 139.289 350.876C139.106 350.755 138.991 350.579 138.942 350.347L139.34 350.247C139.378 350.394 139.45 350.504 139.555 350.577C139.662 350.651 139.801 350.688 139.972 350.688C140.168 350.688 140.323 350.646 140.438 350.563C140.554 350.479 140.612 350.379 140.612 350.261C140.612 350.167 140.578 350.087 140.512 350.023C140.446 349.958 140.344 349.91 140.207 349.878L139.752 349.771C139.502 349.712 139.319 349.62 139.202 349.496C139.086 349.371 139.028 349.214 139.028 349.026C139.028 348.872 139.071 348.736 139.157 348.617C139.245 348.499 139.364 348.406 139.514 348.338C139.666 348.271 139.837 348.237 140.029 348.237C140.299 348.237 140.511 348.296 140.665 348.415C140.82 348.533 140.93 348.689 140.995 348.884ZM142.819 351.057C142.556 351.057 142.33 350.999 142.139 350.883C141.95 350.766 141.803 350.602 141.7 350.393C141.599 350.182 141.548 349.937 141.548 349.658C141.548 349.378 141.599 349.132 141.7 348.919C141.803 348.705 141.947 348.538 142.13 348.418C142.315 348.298 142.53 348.237 142.776 348.237C142.918 348.237 143.059 348.261 143.197 348.308C143.336 348.356 143.462 348.433 143.575 348.539C143.689 348.644 143.78 348.784 143.847 348.958C143.915 349.132 143.948 349.346 143.948 349.601V349.778H141.846V349.416H143.522C143.522 349.262 143.491 349.125 143.43 349.004C143.369 348.884 143.283 348.788 143.171 348.718C143.059 348.649 142.928 348.614 142.776 348.614C142.609 348.614 142.465 348.655 142.343 348.738C142.222 348.82 142.129 348.926 142.064 349.058C141.999 349.189 141.967 349.33 141.967 349.48V349.722C141.967 349.928 142.002 350.102 142.073 350.245C142.145 350.387 142.245 350.496 142.373 350.57C142.501 350.644 142.65 350.68 142.819 350.68C142.929 350.68 143.028 350.665 143.117 350.634C143.207 350.602 143.285 350.555 143.35 350.492C143.415 350.428 143.465 350.349 143.501 350.254L143.906 350.368C143.863 350.505 143.791 350.626 143.691 350.73C143.59 350.833 143.466 350.914 143.318 350.972C143.17 351.028 143.004 351.057 142.819 351.057ZM144.586 351V348.273H144.991V348.685H145.019C145.069 348.55 145.159 348.44 145.289 348.356C145.419 348.272 145.566 348.23 145.729 348.23C145.76 348.23 145.798 348.231 145.845 348.232C145.891 348.233 145.926 348.235 145.949 348.237V348.663C145.935 348.66 145.903 348.654 145.852 348.647C145.802 348.639 145.749 348.635 145.694 348.635C145.561 348.635 145.443 348.663 145.339 348.718C145.236 348.773 145.154 348.849 145.093 348.946C145.034 349.042 145.005 349.151 145.005 349.274V351H144.586ZM148.759 348.273L147.751 351H147.324L146.316 348.273H146.771L147.523 350.446H147.552L148.305 348.273H148.759ZM150.358 351.057C150.095 351.057 149.869 350.999 149.678 350.883C149.489 350.766 149.342 350.602 149.239 350.393C149.138 350.182 149.087 349.937 149.087 349.658C149.087 349.378 149.138 349.132 149.239 348.919C149.342 348.705 149.486 348.538 149.669 348.418C149.854 348.298 150.069 348.237 150.315 348.237C150.457 348.237 150.598 348.261 150.736 348.308C150.875 348.356 151.001 348.433 151.114 348.539C151.228 348.644 151.319 348.784 151.386 348.958C151.454 349.132 151.487 349.346 151.487 349.601V349.778H149.385V349.416H151.061C151.061 349.262 151.03 349.125 150.969 349.004C150.908 348.884 150.822 348.788 150.71 348.718C150.598 348.649 150.467 348.614 150.315 348.614C150.149 348.614 150.004 348.655 149.882 348.738C149.761 348.82 149.669 348.926 149.603 349.058C149.538 349.189 149.506 349.33 149.506 349.48V349.722C149.506 349.928 149.541 350.102 149.612 350.245C149.685 350.387 149.785 350.496 149.912 350.57C150.04 350.644 150.189 350.68 150.358 350.68C150.468 350.68 150.568 350.665 150.656 350.634C150.746 350.602 150.824 350.555 150.889 350.492C150.954 350.428 151.004 350.349 151.04 350.254L151.445 350.368C151.402 350.505 151.33 350.626 151.23 350.73C151.129 350.833 151.005 350.914 150.857 350.972C150.709 351.028 150.543 351.057 150.358 351.057ZM153.155 351.057C152.927 351.057 152.727 350.999 152.553 350.885C152.379 350.769 152.243 350.605 152.144 350.395C152.046 350.183 151.997 349.932 151.997 349.643C151.997 349.357 152.046 349.108 152.144 348.898C152.243 348.687 152.379 348.524 152.554 348.409C152.73 348.295 152.932 348.237 153.162 348.237C153.339 348.237 153.479 348.267 153.582 348.326C153.687 348.384 153.766 348.45 153.82 348.525C153.876 348.598 153.919 348.659 153.95 348.706H153.986V347.364H154.405V351H154V350.581H153.95C153.919 350.631 153.875 350.693 153.819 350.769C153.762 350.844 153.681 350.911 153.575 350.97C153.47 351.028 153.33 351.057 153.155 351.057ZM153.211 350.68C153.379 350.68 153.522 350.637 153.638 350.549C153.754 350.46 153.842 350.338 153.902 350.181C153.962 350.024 153.993 349.842 153.993 349.636C153.993 349.433 153.963 349.255 153.904 349.102C153.845 348.948 153.757 348.828 153.641 348.743C153.525 348.657 153.382 348.614 153.211 348.614C153.034 348.614 152.886 348.659 152.767 348.75C152.65 348.84 152.562 348.963 152.503 349.118C152.445 349.272 152.416 349.445 152.416 349.636C152.416 349.83 152.446 350.007 152.505 350.165C152.565 350.323 152.654 350.448 152.771 350.542C152.889 350.634 153.036 350.68 153.211 350.68ZM157.503 349.182C157.503 348.988 157.55 348.811 157.645 348.651C157.74 348.491 157.867 348.364 158.027 348.269C158.187 348.174 158.363 348.127 158.558 348.127C158.726 348.127 158.881 348.163 159.023 348.235C159.166 348.308 159.284 348.406 159.378 348.532C159.471 348.656 159.529 348.797 159.552 348.955H159.122C159.099 348.833 159.033 348.733 158.925 348.656C158.817 348.578 158.695 348.539 158.558 348.539C158.439 348.539 158.332 348.568 158.234 348.626C158.137 348.684 158.06 348.762 158.002 348.859C157.944 348.956 157.915 349.063 157.915 349.182C157.915 349.3 157.944 349.408 158.002 349.505C158.06 349.602 158.137 349.68 158.234 349.738C158.332 349.796 158.439 349.825 158.558 349.825C158.695 349.825 158.811 349.786 158.906 349.709C159.002 349.631 159.062 349.531 159.087 349.409H159.516C159.494 349.567 159.439 349.708 159.351 349.833C159.264 349.958 159.151 350.056 159.014 350.128C158.878 350.2 158.726 350.237 158.558 350.237C158.363 350.237 158.187 350.189 158.027 350.094C157.867 350 157.74 349.873 157.645 349.713C157.55 349.553 157.503 349.376 157.503 349.182ZM158.54 351.057C158.282 351.057 158.039 351.008 157.812 350.911C157.586 350.814 157.386 350.68 157.214 350.508C157.042 350.335 156.907 350.136 156.809 349.91C156.712 349.684 156.664 349.441 156.665 349.182C156.666 348.923 156.715 348.68 156.812 348.454C156.91 348.228 157.045 348.029 157.217 347.857C157.389 347.684 157.588 347.549 157.814 347.452C158.04 347.355 158.282 347.307 158.54 347.307C158.799 347.307 159.042 347.355 159.268 347.452C159.495 347.549 159.694 347.684 159.864 347.857C160.036 348.029 160.17 348.228 160.267 348.454C160.365 348.68 160.414 348.923 160.415 349.182C160.416 349.441 160.368 349.684 160.271 349.91C160.174 350.136 160.04 350.335 159.868 350.508C159.696 350.68 159.497 350.814 159.27 350.911C159.042 351.008 158.799 351.057 158.54 351.057ZM158.54 350.645C158.742 350.645 158.932 350.607 159.11 350.531C159.287 350.455 159.443 350.351 159.577 350.217C159.711 350.083 159.815 349.928 159.891 349.752C159.967 349.574 160.004 349.385 160.003 349.184C160.002 348.981 159.963 348.791 159.888 348.614C159.812 348.436 159.707 348.28 159.573 348.147C159.439 348.013 159.284 347.908 159.108 347.832C158.932 347.757 158.742 347.719 158.54 347.719C158.339 347.719 158.15 347.757 157.973 347.832C157.797 347.908 157.642 348.013 157.508 348.148C157.374 348.282 157.269 348.438 157.192 348.615C157.116 348.792 157.078 348.981 157.077 349.184C157.076 349.384 157.113 349.572 157.189 349.75C157.264 349.926 157.369 350.081 157.503 350.215C157.638 350.349 157.794 350.454 157.97 350.531C158.147 350.607 158.337 350.645 158.54 350.645ZM162.362 347.364H162.866L163.875 349.061H163.918L164.926 347.364H165.43L164.116 349.501V351H163.676V349.501L162.362 347.364ZM166.389 351.064C166.216 351.064 166.06 351.031 165.919 350.966C165.778 350.9 165.666 350.805 165.583 350.68C165.5 350.555 165.459 350.403 165.459 350.226C165.459 350.07 165.49 349.943 165.551 349.846C165.613 349.748 165.695 349.671 165.798 349.615C165.901 349.559 166.015 349.518 166.139 349.491C166.264 349.462 166.39 349.44 166.517 349.423C166.683 349.402 166.817 349.386 166.92 349.375C167.024 349.364 167.1 349.344 167.147 349.317C167.196 349.29 167.22 349.242 167.22 349.175V349.161C167.22 348.985 167.172 348.849 167.076 348.752C166.982 348.655 166.838 348.607 166.645 348.607C166.445 348.607 166.288 348.65 166.174 348.738C166.061 348.826 165.981 348.919 165.935 349.018L165.537 348.876C165.608 348.711 165.703 348.582 165.821 348.489C165.941 348.396 166.071 348.331 166.212 348.294C166.354 348.256 166.493 348.237 166.631 348.237C166.718 348.237 166.819 348.248 166.933 348.269C167.047 348.289 167.158 348.331 167.265 348.395C167.372 348.459 167.462 348.556 167.533 348.685C167.604 348.814 167.639 348.987 167.639 349.203V351H167.22V350.631H167.199C167.17 350.69 167.123 350.753 167.057 350.821C166.991 350.888 166.902 350.946 166.792 350.993C166.682 351.04 166.548 351.064 166.389 351.064ZM166.453 350.688C166.619 350.688 166.759 350.655 166.872 350.59C166.987 350.525 167.073 350.441 167.131 350.338C167.191 350.235 167.22 350.126 167.22 350.013V349.629C167.202 349.651 167.163 349.67 167.103 349.688C167.044 349.704 166.975 349.719 166.897 349.732C166.82 349.744 166.745 349.755 166.672 349.764C166.599 349.772 166.541 349.78 166.496 349.786C166.387 349.8 166.285 349.823 166.19 349.855C166.097 349.886 166.021 349.932 165.963 349.995C165.906 350.057 165.878 350.141 165.878 350.247C165.878 350.393 165.932 350.503 166.039 350.577C166.148 350.651 166.286 350.688 166.453 350.688ZM170.336 348.884L169.959 348.99C169.936 348.927 169.901 348.866 169.855 348.807C169.81 348.747 169.748 348.697 169.67 348.658C169.592 348.619 169.492 348.599 169.37 348.599C169.203 348.599 169.064 348.638 168.953 348.715C168.843 348.791 168.788 348.887 168.788 349.004C168.788 349.108 168.825 349.191 168.901 349.251C168.977 349.311 169.095 349.362 169.256 349.402L169.661 349.501C169.905 349.561 170.087 349.651 170.206 349.773C170.326 349.894 170.386 350.049 170.386 350.24C170.386 350.396 170.341 350.536 170.251 350.659C170.162 350.782 170.038 350.879 169.878 350.95C169.718 351.021 169.532 351.057 169.32 351.057C169.042 351.057 168.812 350.996 168.63 350.876C168.447 350.755 168.332 350.579 168.283 350.347L168.681 350.247C168.719 350.394 168.791 350.504 168.896 350.577C169.002 350.651 169.141 350.688 169.313 350.688C169.508 350.688 169.664 350.646 169.778 350.563C169.894 350.479 169.952 350.379 169.952 350.261C169.952 350.167 169.919 350.087 169.853 350.023C169.787 349.958 169.685 349.91 169.547 349.878L169.093 349.771C168.843 349.712 168.66 349.62 168.543 349.496C168.427 349.371 168.369 349.214 168.369 349.026C168.369 348.872 168.412 348.736 168.498 348.617C168.586 348.499 168.705 348.406 168.855 348.338C169.007 348.271 169.178 348.237 169.37 348.237C169.64 348.237 169.852 348.296 170.006 348.415C170.161 348.533 170.271 348.689 170.336 348.884ZM171.016 351V348.273H171.435V351H171.016ZM171.229 347.818C171.148 347.818 171.077 347.79 171.018 347.735C170.96 347.679 170.931 347.612 170.931 347.534C170.931 347.456 170.96 347.389 171.018 347.333C171.077 347.278 171.148 347.25 171.229 347.25C171.311 347.25 171.381 347.278 171.439 347.333C171.498 347.389 171.528 347.456 171.528 347.534C171.528 347.612 171.498 347.679 171.439 347.735C171.381 347.79 171.311 347.818 171.229 347.818ZM172.203 351V348.273H172.608V348.685H172.636C172.686 348.55 172.776 348.44 172.906 348.356C173.036 348.272 173.183 348.23 173.346 348.23C173.377 348.23 173.416 348.231 173.462 348.232C173.508 348.233 173.543 348.235 173.566 348.237V348.663C173.552 348.66 173.52 348.654 173.469 348.647C173.419 348.639 173.366 348.635 173.311 348.635C173.178 348.635 173.06 348.663 172.956 348.718C172.853 348.773 172.771 348.849 172.711 348.946C172.651 349.042 172.622 349.151 172.622 349.274V351H172.203ZM175.526 351V347.364H177.721V347.754H175.967V348.983H177.607V349.374H175.967V350.609H177.749V351H175.526ZM178.728 352.023C178.657 352.023 178.593 352.017 178.538 352.005C178.482 351.994 178.444 351.984 178.422 351.973L178.529 351.604C178.631 351.63 178.721 351.639 178.799 351.632C178.877 351.625 178.946 351.59 179.006 351.527C179.068 351.466 179.124 351.366 179.175 351.227L179.253 351.014L178.245 348.273H178.699L179.452 350.446H179.48L180.233 348.273H180.688L179.53 351.398C179.478 351.539 179.414 351.655 179.337 351.748C179.26 351.841 179.17 351.91 179.069 351.955C178.968 352 178.854 352.023 178.728 352.023ZM181.241 351V348.273H181.646V348.699H181.681C181.738 348.553 181.83 348.44 181.956 348.36C182.083 348.278 182.235 348.237 182.413 348.237C182.593 348.237 182.742 348.278 182.862 348.36C182.983 348.44 183.077 348.553 183.144 348.699H183.173C183.243 348.558 183.347 348.446 183.487 348.363C183.627 348.279 183.794 348.237 183.99 348.237C184.233 348.237 184.433 348.314 184.588 348.466C184.743 348.618 184.82 348.854 184.82 349.175V351H184.401V349.175C184.401 348.973 184.346 348.83 184.236 348.743C184.126 348.657 183.997 348.614 183.847 348.614C183.656 348.614 183.507 348.672 183.402 348.788C183.296 348.902 183.244 349.048 183.244 349.224V351H182.818V349.132C182.818 348.977 182.767 348.852 182.667 348.757C182.566 348.662 182.436 348.614 182.278 348.614C182.169 348.614 182.067 348.643 181.972 348.701C181.879 348.759 181.803 348.839 181.745 348.942C181.688 349.044 181.66 349.162 181.66 349.295V351H181.241ZM186.73 351.057C186.467 351.057 186.241 350.999 186.05 350.883C185.861 350.766 185.714 350.602 185.612 350.393C185.51 350.182 185.459 349.937 185.459 349.658C185.459 349.378 185.51 349.132 185.612 348.919C185.714 348.705 185.858 348.538 186.041 348.418C186.226 348.298 186.441 348.237 186.688 348.237C186.83 348.237 186.97 348.261 187.108 348.308C187.247 348.356 187.373 348.433 187.487 348.539C187.6 348.644 187.691 348.784 187.758 348.958C187.826 349.132 187.859 349.346 187.859 349.601V349.778H185.757V349.416H187.433C187.433 349.262 187.402 349.125 187.341 349.004C187.281 348.884 187.194 348.788 187.082 348.718C186.97 348.649 186.839 348.614 186.688 348.614C186.521 348.614 186.376 348.655 186.254 348.738C186.134 348.82 186.041 348.926 185.975 349.058C185.91 349.189 185.878 349.33 185.878 349.48V349.722C185.878 349.928 185.913 350.102 185.984 350.245C186.057 350.387 186.157 350.496 186.284 350.57C186.412 350.644 186.561 350.68 186.73 350.68C186.84 350.68 186.94 350.665 187.028 350.634C187.118 350.602 187.196 350.555 187.261 350.492C187.326 350.428 187.376 350.349 187.412 350.254L187.817 350.368C187.774 350.505 187.703 350.626 187.602 350.73C187.501 350.833 187.377 350.914 187.229 350.972C187.081 351.028 186.915 351.057 186.73 351.057ZM188.916 349.359V351H188.497V348.273H188.902V348.699H188.937C189.001 348.56 189.098 348.449 189.228 348.365C189.359 348.28 189.527 348.237 189.733 348.237C189.917 348.237 190.079 348.275 190.217 348.351C190.356 348.425 190.464 348.539 190.54 348.692C190.617 348.843 190.656 349.035 190.656 349.267V351H190.237V349.295C190.237 349.081 190.181 348.914 190.07 348.795C189.959 348.674 189.806 348.614 189.612 348.614C189.478 348.614 189.359 348.643 189.253 348.701C189.149 348.759 189.067 348.843 189.006 348.955C188.946 349.066 188.916 349.201 188.916 349.359ZM192.885 351V347.364H193.325V349.168H193.368L195.001 347.364H195.576L194.049 349.004L195.576 351H195.044L193.78 349.31L193.325 349.821V351H192.885ZM196.296 351H195.834L197.169 347.364H197.624L198.959 351H198.497L197.411 347.939H197.382L196.296 351ZM196.466 349.58H198.327V349.97H196.466V349.58ZM198.842 347.364H199.346L200.354 349.061H200.397L201.406 347.364H201.91L200.596 349.501V351H200.156V349.501L198.842 347.364ZM202.257 351H201.796L203.131 347.364H203.586L204.921 351H204.459L203.373 347.939H203.344L202.257 351ZM202.428 349.58H204.289V349.97H202.428V349.58ZM205.487 351V347.364H206.759C207.012 347.364 207.221 347.407 207.385 347.495C207.55 347.581 207.672 347.698 207.753 347.845C207.833 347.99 207.874 348.152 207.874 348.33C207.874 348.486 207.846 348.615 207.79 348.717C207.736 348.818 207.663 348.899 207.574 348.958C207.485 349.017 207.388 349.061 207.284 349.089V349.125C207.395 349.132 207.507 349.171 207.62 349.242C207.732 349.313 207.826 349.415 207.902 349.548C207.978 349.68 208.016 349.842 208.016 350.034C208.016 350.216 207.974 350.38 207.891 350.526C207.808 350.672 207.678 350.787 207.499 350.872C207.32 350.957 207.088 351 206.801 351H205.487ZM205.928 350.609H206.801C207.089 350.609 207.293 350.554 207.414 350.442C207.536 350.33 207.597 350.194 207.597 350.034C207.597 349.911 207.565 349.797 207.502 349.693C207.44 349.588 207.35 349.504 207.234 349.441C207.118 349.377 206.981 349.345 206.822 349.345H205.928V350.609ZM205.928 348.962H206.744C206.877 348.962 206.996 348.936 207.103 348.884C207.211 348.831 207.296 348.758 207.359 348.663C207.423 348.569 207.455 348.457 207.455 348.33C207.455 348.17 207.399 348.034 207.288 347.923C207.176 347.81 207 347.754 206.759 347.754H205.928V348.962ZM208.888 351H208.427L209.762 347.364H210.216L211.552 351H211.09L210.003 347.939H209.975L208.888 351ZM209.059 349.58H210.92V349.97H209.059V349.58ZM214.107 348.273C214.085 348.093 213.999 347.953 213.847 347.854C213.696 347.754 213.51 347.705 213.29 347.705C213.129 347.705 212.988 347.731 212.867 347.783C212.748 347.835 212.654 347.906 212.587 347.998C212.521 348.089 212.487 348.192 212.487 348.308C212.487 348.405 212.51 348.489 212.557 348.559C212.604 348.627 212.664 348.685 212.738 348.731C212.811 348.776 212.888 348.813 212.969 348.843C213.049 348.871 213.123 348.894 213.191 348.912L213.56 349.011C213.655 349.036 213.76 349.071 213.876 349.114C213.993 349.158 214.105 349.218 214.211 349.294C214.319 349.368 214.408 349.464 214.478 349.581C214.548 349.699 214.583 349.842 214.583 350.013C214.583 350.209 214.531 350.387 214.428 350.545C214.326 350.704 214.177 350.83 213.981 350.924C213.785 351.017 213.548 351.064 213.269 351.064C213.008 351.064 212.783 351.022 212.592 350.938C212.403 350.854 212.254 350.737 212.145 350.586C212.037 350.436 211.976 350.261 211.962 350.062H212.416C212.428 350.2 212.474 350.313 212.555 350.403C212.637 350.492 212.74 350.558 212.864 350.602C212.989 350.645 213.124 350.666 213.269 350.666C213.437 350.666 213.588 350.639 213.721 350.585C213.855 350.529 213.961 350.452 214.039 350.354C214.117 350.254 214.156 350.138 214.156 350.006C214.156 349.885 214.123 349.787 214.055 349.711C213.988 349.635 213.899 349.574 213.789 349.526C213.679 349.479 213.56 349.437 213.432 349.402L212.985 349.274C212.7 349.192 212.476 349.076 212.31 348.924C212.144 348.773 212.061 348.575 212.061 348.33C212.061 348.126 212.116 347.948 212.226 347.797C212.338 347.644 212.487 347.526 212.674 347.442C212.862 347.357 213.072 347.314 213.304 347.314C213.539 347.314 213.747 347.356 213.929 347.44C214.111 347.523 214.256 347.636 214.362 347.781C214.47 347.925 214.527 348.089 214.533 348.273H214.107ZM213.091 350.986H213.439L213.411 351.128C213.503 351.142 213.588 351.181 213.665 351.243C213.742 351.307 213.78 351.408 213.78 351.547C213.78 351.7 213.717 351.824 213.59 351.92C213.465 352.017 213.279 352.065 213.034 352.065L213.02 351.788C213.13 351.788 213.221 351.771 213.294 351.735C213.367 351.701 213.404 351.643 213.404 351.561C213.404 351.479 213.373 351.424 213.313 351.394C213.253 351.365 213.155 351.344 213.02 351.334L213.091 350.986ZM215.747 347.364V351H215.307V347.364H215.747Z" fill="black"/>
<path d="M103.5 292C101.819 292 100.175 291.501 98.7777 290.567C97.3798 289.633 96.2904 288.306 95.647 286.753C95.0037 285.2 94.8354 283.491 95.1633 281.842C95.4913 280.193 96.3008 278.678 97.4896 277.49L103.5 283.5L103.5 292Z" fill="black"/>
<defs>
<filter id="filter0_d_20_9" x="72" y="200" width="177" height="177" filterUnits="userSpaceOnUse" color-interpolation-filters="sRGB">
<feFlood flood-opacity="0" result="BackgroundImageFix"/>
<feColorMatrix in="SourceAlpha" type="matrix" values="0 0 0 0 0 0 0 0 0 0 0 0 0 0 0 0 0 0 127 0" result="hardAlpha"/>
<feOffset dy="4"/>
<feGaussianBlur stdDeviation="2"/>
<feComposite in2="hardAlpha" operator="out"/>
<feColorMatrix type="matrix" values="0 0 0 0 0 0 0 0 0 0 0 0 0 0 0 0 0 0 0.25 0"/>
<feBlend mode="normal" in2="BackgroundImageFix" result="effect1_dropShadow_20_9"/>
<feBlend mode="normal" in="SourceGraphic" in2="effect1_dropShadow_20_9" result="shape"/>
</filter>
<linearGradient id="paint0_linear_20_9" x1="160" y1="0" x2="160" y2="568" gradientUnits="userSpaceOnUse">
<stop stop-color="#9E479E"/>
<stop offset="1"/>
</linearGradient>
</defs>
</svg>
